<?xml version="1.0" encoding="UTF-8"?>
<svg width="57px" height="50px" viewBox="0 0 57 50" version="1.1" xmlns="http://www.w3.org/2000/svg" xmlns:xlink="http://www.w3.org/1999/xlink">
    <!-- Generator: Sketch 47.1 (45422) - http://www.bohemiancoding.com/sketch -->
    <title>chicagobulls</title>
    <desc>Created with Sketch.</desc>
    <defs></defs>
    <g id="Page-1" stroke="none" stroke-width="1" fill="none" fill-rule="evenodd">
        <g id="chicagobulls">
            <path d="M21.796875,48.828125 C19.140625,46.171875 19.0820312,41.2109375 19.0820312,41.2109375 C19.8242188,40.7617188 20.1171875,39.921875 20.1171875,39.921875 C20.1171875,39.921875 18.9648437,37.9882812 16.9921875,34.1601562 C15,30.3320312 13.2226562,25.2929687 13.2226562,25.2929687 C5.7421875,28.5351562 2.71484375,23.3007812 2.71484375,23.3007812 C3.75,22.0117188 11.9921875,20.7226563 11.9921875,20.7226563 C6.796875,20.703125 0,18.359375 0,11.7773437 C0,5.1953125 3.359375,0.13671875 3.359375,0.13671875 C3.359375,0.13671875 2.55859375,8.73046875 5.703125,11.3867187 C9.27734375,14.4140625 18.8476562,12.0703125 28.125,12.0703125 C37.4023438,12.0703125 46.953125,14.4140625 50.546875,11.3867187 C53.6914063,8.73046875 52.890625,0.13671875 52.890625,0.13671875 C52.890625,0.13671875 56.25,5.1953125 56.25,11.7773437 C56.25,18.359375 49.453125,20.703125 44.2382812,20.703125 C44.2382812,20.703125 52.4804688,21.9921875 53.515625,23.28125 C53.515625,23.28125 50.4882812,28.515625 43.0078125,25.2734375 C43.0078125,25.2734375 41.2304688,30.3125 39.2382812,34.140625 C37.2460937,37.96875 36.1132812,39.9023437 36.1132812,39.9023437 C36.1132812,39.9023437 36.40625,40.7421875 37.1484375,41.1914062 C37.1484375,41.1914062 37.109375,46.1328125 34.4335938,48.8085937 C33.8867187,49.3554687 30.3320312,49.84375 28.1054687,49.84375 C25.8984375,49.8632812 22.3632812,49.375 21.796875,48.828125 Z" id="Shape" fill="#000000" fill-rule="nonzero"></path>
            <path d="M28.4179688,21.2695312 C28.4179688,20.6640625 28.4179688,20.0390625 28.4179688,19.4726563 C28.3203125,19.4726563 28.2226562,19.4726563 28.125,19.4726563 C28.0273438,19.4726563 27.9296875,19.4726563 27.8320312,19.4726563 C27.8320312,20.0390625 27.8320312,20.6640625 27.8320312,21.2695312 C27.9296875,21.2695312 28.0273438,21.2695312 28.125,21.2695312 C28.2226562,21.2695312 28.3203125,21.2695312 28.4179688,21.2695312 Z" id="Shape"></path>
            <path d="M28.4179688,18.9648438 C28.4179688,18.3203125 28.4179688,17.8515625 28.4179688,17.7929688 C28.4179688,17.5585938 28.4765625,17.0703125 28.125,17.0703125 C27.7734375,17.0703125 27.8320313,17.5585938 27.8320313,17.7929688 C27.8320313,17.8515625 27.8320313,18.3203125 27.8320313,18.9648438 C27.9296875,18.9648438 28.0273438,18.9648438 28.125,18.9648438 C28.2226563,18.9648438 28.3203125,18.9648438 28.4179688,18.9648438 Z" id="Shape"></path>
            <path d="M28.4179688,23.28125 C28.4179688,22.9492188 28.4179688,22.4023437 28.4179688,21.7773438 C28.3203125,21.7773438 28.2226562,21.7773438 28.125,21.7773438 C28.0273438,21.7773438 27.9296875,21.7773438 27.8320312,21.7773438 C27.8320312,22.4023437 27.8320312,22.9492188 27.8320312,23.28125 C27.9296875,23.28125 28.0273438,23.28125 28.125,23.28125 C28.2226562,23.28125 28.3203125,23.28125 28.4179688,23.28125 Z" id="Shape"></path>
            <g id="Group" transform="translate(0.781250, 2.148438)" fill="#ED1C24">
                <path d="M27.34375,36.40625 C25.078125,36.4257812 22.8125,36.9140625 20.8984375,37.8710938 C20.5664063,38.0078125 20.3125,38.203125 20.0585937,38.3203125 C20.5664062,36.640625 20.8984375,34.84375 20.8984375,32.96875 C20.9570313,30.8398438 20.5078125,28.7109375 19.921875,26.8359375 C20.5664063,27.0898438 21.2695312,27.421875 22.0507812,27.5390625 C23.984375,28.046875 26.171875,27.5390625 27.34375,25.7421875 L27.34375,25.7421875 L27.34375,25.7421875 C28.4960938,27.5390625 30.703125,28.0664063 32.6367188,27.5390625 C33.4179688,27.4023438 34.1210938,27.0898438 34.765625,26.8359375 C34.1796875,28.7109375 33.7304688,30.8398438 33.7890625,32.96875 C33.7890625,34.84375 34.1210938,36.640625 34.6289062,38.3203125 C34.375,38.1835938 34.1210938,37.9882812 33.7890625,37.8710938 C31.875,36.8945312 29.609375,36.4257812 27.34375,36.40625 Z M33.1445312,28.2421875 C32.7539062,31.7382812 30.3125,34.4335937 27.34375,34.4335937 C24.375,34.4335937 21.9335938,31.7382812 21.5429688,28.2421875 L21.0742188,28.2421875 C21.484375,31.9921875 24.140625,34.9023437 27.34375,34.9023437 C30.546875,34.9023437 33.2226562,31.9921875 33.6132812,28.2421875 L33.1445312,28.2421875 Z" id="Shape"></path>
                <path d="M35.8789062,39.3164062 C35.8203125,40.3320312 35.4882812,44.1796875 33.3203125,46.3476562 C32.9296875,46.71875 29.765625,47.2460938 27.34375,47.2460938 C24.921875,47.2460938 21.7578125,46.71875 21.3671875,46.3476562 C19.1992188,44.1796875 18.8671875,40.3320312 18.8085938,39.3164062 L21.1132813,38.28125 C22.9101563,37.3828125 25.078125,36.8945312 27.34375,36.875 C29.6289063,36.8945312 31.7773438,37.3828125 33.5742188,38.28125 L35.8789062,39.3164062 Z M25.078125,41.875 C25.0976562,42.109375 25.0585938,42.4023437 24.921875,42.7539062 C24.921875,42.7539062 24.7851563,42.9882812 25,43.1054688 C25.2148438,43.2226562 25.6640625,42.3046875 25.6640625,41.3867187 C25.6640625,40.46875 24.6679688,39.2773437 23.1054688,39.2773437 C21.5429688,39.2773437 20.8984375,40.234375 20.8984375,41.1132812 C20.8984375,41.9921875 21.8164062,42.9101562 23.1054688,42.9101562 C24.1015625,42.9296875 24.8242188,42.2070312 25.078125,41.875 L25.078125,41.875 Z M29.453125,41.875 C29.7265625,42.1875 30.4296875,42.9296875 31.4453125,42.9296875 C32.734375,42.9296875 33.6523438,41.9921875 33.6523438,41.1328125 C33.6523438,40.2539062 33.0273438,39.296875 31.4453125,39.296875 C29.8828125,39.296875 28.8867188,40.4882812 28.8867188,41.40625 C28.8867188,42.3242187 29.3359375,43.2421875 29.5507813,43.125 C29.765625,43.0078125 29.6289063,42.7734375 29.6289063,42.7734375 C29.4726563,42.4023438 29.453125,42.109375 29.453125,41.875 L29.453125,41.875 Z M27.34375,44.5703125 C30.0195312,44.5703125 32.1484375,45.078125 33.2617188,45.7421875 L33.4765625,45.2734375 C32.2070312,44.53125 29.9804688,44.0820312 27.34375,44.0820312 C24.7070312,44.0820312 22.4804688,44.5507812 21.2109375,45.2734375 L21.4257812,45.7421875 C22.5390625,45.078125 24.6679688,44.5703125 27.34375,44.5703125 Z" id="Shape"></path>
                <path d="M41.1132812,18.4960937 C40.859375,15.7421875 40.0585938,12.9101562 39.4921875,11.1328125 C39.4921875,11.1328125 39.4921875,11.1328125 39.4921875,11.1328125 C39.4140625,11.1328125 34.6875,10.7617187 33.9648437,10.703125 C31.7773438,10.546875 29.5507812,10.4101562 27.34375,10.4101562 C25.1171875,10.4101562 22.890625,10.546875 20.7226562,10.703125 C20,10.7617187 15.2734375,11.1328125 15.1953125,11.1328125 C15.1953125,11.1328125 15.1953125,11.1328125 15.1953125,11.1328125 C14.6289062,12.9101562 13.828125,15.7421875 13.5742187,18.4960937 C13.5742187,18.4960937 13.4765625,20.0195312 13.4960937,20.625 C13.7109375,20.5273437 13.9648437,20.46875 14.2773437,20.46875 C17.3828125,20.46875 19.5507812,25.4882812 23.0859375,25.4882812 C23.4375,25.4882812 23.7695312,25.4296875 24.0625,25.3320312 C25.9375,24.7460937 26.8359375,22.5585937 27.0117187,21.6601562 C24.6289062,21.640625 22.34375,21.4257812 20.390625,21.015625 C20.2539062,20.9960937 20.15625,20.859375 20.1953125,20.7226562 C20.2148437,20.5859375 20.3515625,20.4882812 20.4882812,20.5273437 C22.421875,20.9375 24.6679687,21.1523437 27.03125,21.171875 C27.03125,20.8398437 27.03125,20.2929687 27.03125,19.6679687 C24.6289062,19.6484375 22.34375,19.4335937 20.3710937,19.0234375 C20.234375,19.0039062 20.1367187,18.8671875 20.1757812,18.7304687 C20.1953125,18.59375 20.3320312,18.4960937 20.46875,18.5351562 C22.4023437,18.9453125 24.6484375,19.1601562 27.0117187,19.1796875 C27.0117187,18.5742187 27.0117187,17.9492187 27.0117187,17.3828125 C24.609375,17.3632812 22.3242187,17.1484375 20.3515625,16.7382812 C20.2148437,16.71875 20.1171875,16.5820312 20.15625,16.4453125 C20.1757812,16.3085937 20.3125,16.2109375 20.4492187,16.25 C22.3828125,16.6601562 24.6289062,16.875 26.9921875,16.8945312 C26.9921875,16.25 26.9921875,15.78125 26.9921875,15.7226562 C26.9921875,15.4882812 26.9335937,15 27.2851562,15 C27.6367187,15 27.578125,15.4882812 27.578125,15.7226562 C27.578125,15.78125 27.578125,16.25 27.578125,16.8945312 C29.9414062,16.875 32.2070312,16.6601562 34.1210937,16.25 C34.2578125,16.2109375 34.3945312,16.3085937 34.4140625,16.4453125 C34.4335937,16.5820312 34.3554687,16.71875 34.21875,16.7382812 C32.265625,17.1484375 29.9609375,17.3632812 27.5585937,17.3828125 C27.5585937,17.9492187 27.5585937,18.5742187 27.5585937,19.1796875 C29.921875,19.1601562 32.1875,18.9453125 34.1015625,18.5351562 C34.2382812,18.4960937 34.375,18.59375 34.3945312,18.7304687 C34.4140625,18.8671875 34.3359375,19.0039062 34.1992187,19.0234375 C32.2460937,19.4335937 29.9414062,19.6484375 27.5390625,19.6679687 C27.5390625,20.2929687 27.5390625,20.8398437 27.5390625,21.171875 C29.9023437,21.1523437 32.1679687,20.9375 34.0820312,20.5273437 C34.21875,20.4882812 34.3554688,20.5859375 34.375,20.7226562 C34.3945312,20.859375 34.3164062,20.9960937 34.1796875,21.015625 C32.2265625,21.4257812 29.9414062,21.640625 27.5585937,21.6601562 C27.734375,22.5585937 28.6328125,24.7460937 30.5078125,25.3320312 C30.8007812,25.4296875 31.1328125,25.4882812 31.484375,25.4882812 C35.0195312,25.4882812 37.1875,20.46875 40.2929687,20.46875 C40.625,20.46875 40.8789062,20.5273437 41.0742187,20.625 C41.2109375,20.0195312 41.1132812,18.4960937 41.1132812,18.4960937 Z" id="Shape" fill-rule="nonzero"></path>
                <path d="M1.19140625,4.94140625 L0,6.23046875 C0.44921875,3.6328125 1.328125,1.4453125 2.01171875,0.01953125 C1.9921875,1.69921875 2.109375,4.140625 2.71484375,6.23046875 L1.19140625,4.94140625 Z M53.4960938,4.94140625 L54.6875,6.25 C54.2382813,3.65234375 53.359375,1.46484375 52.6757813,0.0390625 C52.6953125,1.71875 52.578125,4.16015625 51.9726562,6.25 L53.4960938,4.94140625 Z" id="Shape" fill-rule="nonzero"></path>
                <path d="M38.7109375,28.1640625 C39.0625,28.1640625 39.453125,28.1054687 39.8242188,27.9882812 C39.6679688,28.359375 39.4921875,28.75 39.3164062,29.140625 C38.4960938,29.4140625 37.8125,29.4335937 37.3242188,29.140625 C36.6015625,28.75 36.3085938,27.8320312 36.2109375,27.0117187 C36.5820313,27.421875 37.1484375,27.8710937 37.9101563,28.0664062 C38.1640625,28.125 38.4375,28.1640625 38.7109375,28.1640625 Z M17.3632812,29.140625 C18.0859375,28.75 18.3789062,27.8320312 18.4765625,27.0117187 C18.1054687,27.421875 17.5390625,27.8710937 16.7773438,28.0664062 C16.5234375,28.125 16.25,28.1640625 15.9765625,28.1640625 C15.625,28.1640625 15.2539062,28.1054687 14.8632812,27.9882812 C15.0195312,28.359375 15.1953125,28.75 15.3710938,29.140625 C16.1914062,29.4140625 16.875,29.4140625 17.3632812,29.140625 Z M17.6171875,29.5898437 C17.2851562,29.765625 16.9140625,29.8632812 16.5039062,29.8632812 C16.2304687,29.8632812 15.9570312,29.8242188 15.6445312,29.7460938 C15.9570312,30.4492187 16.3085938,31.1328125 16.640625,31.796875 C18.59375,35.5664062 19.7460937,37.5195312 19.765625,37.5390625 L19.8828125,37.734375 C20.8984375,34.4335938 19.5507812,29.6484375 18.8867187,27.6757812 C18.6914062,28.4375 18.3203125,29.1992187 17.6171875,29.5898437 Z M35.8007812,27.6757812 C35.1367188,29.6484375 33.7890625,34.4335937 34.8046875,37.734375 L34.921875,37.5390625 C34.9414062,37.5195312 36.09375,35.5664062 38.046875,31.796875 C38.3789062,31.1328125 38.7304688,30.4492187 39.0429688,29.7460937 C38.7304688,29.8242187 38.4570312,29.8632812 38.1835938,29.8632812 C37.7734375,29.8632812 37.4023438,29.765625 37.0703125,29.5898437 C36.3671875,29.1992188 35.9960938,28.4375 35.8007812,27.6757812 Z M13.0273438,18.828125 C12.1679688,18.9257813 11.3085938,19.0429688 11.3085938,19.0429688 C8.26171875,19.5117188 3.84765625,20.46875 2.59765625,21.2304688 C3.1640625,21.9726562 4.84375,23.7109375 7.890625,23.7109375 C9.23828125,23.7109375 10.703125,23.359375 12.265625,22.6953125 L12.734375,22.5 L12.9101563,22.9882812 C12.9296875,23.0273437 13.6132813,24.9804687 14.609375,27.3632812 C15.3515625,27.65625 16.0351563,27.734375 16.6601563,27.578125 C17.265625,27.421875 17.7148438,27.0898438 18.0273438,26.7773438 C13.5351563,26.5039062 13.8476563,22.8320313 13.8476563,22.8320313 C13.046875,22.8320313 12.5976562,21.796875 12.9882812,21.09375 C12.9492188,20.3515625 12.96875,19.5898438 13.0273438,18.828125 Z M41.6992188,21.0742188 C42.0898438,21.7773438 41.6601562,22.8125 40.8398438,22.8125 C40.8398438,22.8125 41.1328125,26.484375 36.6601562,26.7578125 C36.9726562,27.0898437 37.4414062,27.421875 38.0273438,27.5585938 C38.6523438,27.7148438 39.3359375,27.6367188 40.078125,27.34375 C41.0742188,24.9609375 41.7578125,23.0078125 41.7773438,22.96875 L41.953125,22.4804688 L42.421875,22.6757812 C43.984375,23.3398438 45.4492188,23.6914062 46.796875,23.6914062 C49.84375,23.6914062 51.5234375,21.953125 52.0898438,21.2109375 C50.8398438,20.4492188 46.4257812,19.4921875 43.3789062,19.0234375 C43.3789062,19.0234375 42.5195312,18.90625 41.6601562,18.8085938 C41.71875,19.5898438 41.7382812,20.3515625 41.6992188,21.0742188 Z" id="Shape" fill-rule="nonzero"></path>
            </g>
            <path d="M18.5742188,28.1835938 C18.3789062,28.1835938 18.3203125,28.2421875 17.9882812,28.1835938 C16.5625,28.1835938 15.078125,27.03125 15.15625,25.0976562 C15.3515625,25.0390625 15.546875,25.0390625 15.6640625,25.0976562 C15.6640625,26.1914062 16.1132812,27.734375 18.4960937,27.734375 C18.6523438,28.0078125 18.515625,28.0078125 18.5742188,28.1835938 L18.5742188,28.1835938 Z M37.6757812,28.1835938 C37.8710938,28.1835938 37.9296875,28.2421875 38.2617188,28.1835938 C39.6875,28.1835938 41.171875,27.03125 41.09375,25.0976562 C40.8984375,25.0390625 40.703125,25.0390625 40.5859375,25.0976562 C40.5859375,26.1914062 40.1367188,27.734375 37.7539062,27.734375 C37.5976562,28.0078125 37.734375,28.0078125 37.6757812,28.1835938 L37.6757812,28.1835938 Z M15.4101562,13.3203125 C15.2734375,13.3203125 12.5585938,13.4375 12.3046875,13.4375 C8.88671875,13.4375 6.7578125,12.9296875 5.390625,11.7773437 C4.6875,11.1914062 4.1796875,10.3320312 3.7890625,9.35546875 L2.01171875,7.8125 L0.64453125,9.31640625 C0.546875,10.1171875 0.48828125,10.9375 0.48828125,11.796875 C0.48828125,18.4765625 7.734375,20.2539062 12.0117187,20.2539062 L13.8867187,20.2148438 C14.1601562,17.5976562 14.8632812,15.0390625 15.4101562,13.3203125 Z M42.3828125,20.1953125 L44.2578125,20.234375 C48.5351562,20.234375 55.78125,18.4570312 55.78125,11.7773437 C55.78125,10.9179687 55.7226563,10.0976562 55.625,9.296875 L54.2578125,7.79296875 L52.4804688,9.3359375 C52.109375,10.3125 51.5820312,11.1523437 50.8789062,11.7578125 C49.5117188,12.9101562 47.3828125,13.4179688 43.9648438,13.4179688 C43.6914063,13.4179688 40.9960938,13.3203125 40.859375,13.3007812 C41.3867188,15.0390625 42.0898438,17.5976562 42.3828125,20.1953125 Z" id="Shape" fill="#FFFFFF"></path>
        </g>
    </g>
</svg>