<?xml version="1.0" encoding="UTF-8"?>
<svg width="92px" height="100px" viewBox="0 0 92 100" version="1.1" xmlns="http://www.w3.org/2000/svg" xmlns:xlink="http://www.w3.org/1999/xlink">
    <!-- Generator: Sketch 47.1 (45422) - http://www.bohemiancoding.com/sketch -->
    <title>copa_del_rey</title>
    <desc>Created with Sketch.</desc>
    <defs>
        <linearGradient x1="49.9567806%" y1="-4.90669996%" x2="49.9567806%" y2="100.499419%" id="linearGradient-1">
            <stop stop-color="#EA2127" offset="0%"></stop>
            <stop stop-color="#B41F30" offset="100%"></stop>
        </linearGradient>
        <linearGradient x1="50.0124755%" y1="15.0124263%" x2="50.0124755%" y2="111.373531%" id="linearGradient-2">
            <stop stop-color="#BB212A" offset="29.7%"></stop>
            <stop stop-color="#9A1B3E" offset="96.97%"></stop>
        </linearGradient>
        <linearGradient x1="49.9969656%" y1="28.3317739%" x2="49.9969656%" y2="137.848005%" id="linearGradient-3">
            <stop stop-color="#F5C770" offset="20%"></stop>
            <stop stop-color="#C48242" offset="100%"></stop>
        </linearGradient>
        <linearGradient x1="20.6893495%" y1="50.0595052%" x2="120.678056%" y2="50.0595052%" id="linearGradient-4">
            <stop stop-color="#EDBE69" offset="0%"></stop>
            <stop stop-color="#C88648" offset="78.25%"></stop>
        </linearGradient>
        <linearGradient x1="19.1233333%" y1="50.6077586%" x2="119.135833%" y2="50.6077586%" id="linearGradient-5">
            <stop stop-color="#EDBE69" offset="0%"></stop>
            <stop stop-color="#C88648" offset="78.25%"></stop>
        </linearGradient>
        <linearGradient x1="16.536904%" y1="50.1111809%" x2="116.843242%" y2="50.1111809%" id="linearGradient-6">
            <stop stop-color="#EDBE69" offset="0%"></stop>
            <stop stop-color="#C88648" offset="78.25%"></stop>
        </linearGradient>
        <linearGradient x1="22.9832811%" y1="50.1111809%" x2="123.296729%" y2="50.1111809%" id="linearGradient-7">
            <stop stop-color="#EDBE69" offset="0%"></stop>
            <stop stop-color="#C88648" offset="78.25%"></stop>
        </linearGradient>
        <linearGradient x1="14.1465822%" y1="49.5402683%" x2="115.311444%" y2="49.5402683%" id="linearGradient-8">
            <stop stop-color="#EDBE69" offset="0%"></stop>
            <stop stop-color="#C88648" offset="78.25%"></stop>
        </linearGradient>
        <linearGradient x1="19.5954558%" y1="49.5402683%" x2="120.763729%" y2="49.5402683%" id="linearGradient-9">
            <stop stop-color="#EDBE69" offset="0%"></stop>
            <stop stop-color="#C88648" offset="78.25%"></stop>
        </linearGradient>
        <linearGradient x1="49.9661809%" y1="-0.143100884%" x2="49.9661809%" y2="99.9016751%" id="linearGradient-10">
            <stop stop-color="#F5C770" offset="20%"></stop>
            <stop stop-color="#C48242" offset="100%"></stop>
        </linearGradient>
        <linearGradient x1="50.1300651%" y1="0.239304483%" x2="50.1300651%" y2="130.258934%" id="linearGradient-11">
            <stop stop-color="#EA2127" offset="0%"></stop>
            <stop stop-color="#B41F30" offset="100%"></stop>
        </linearGradient>
        <linearGradient x1="50.0247642%" y1="-0.0540865385%" x2="50.0247642%" y2="130.552644%" id="linearGradient-12">
            <stop stop-color="#EA2127" offset="0%"></stop>
            <stop stop-color="#B41F30" offset="100%"></stop>
        </linearGradient>
        <linearGradient x1="49.7085714%" y1="-2.01486146%" x2="49.7085714%" y2="134.842065%" id="linearGradient-13">
            <stop stop-color="#EA2127" offset="0%"></stop>
            <stop stop-color="#B41F30" offset="100%"></stop>
        </linearGradient>
        <linearGradient x1="50.0748768%" y1="-2.27247475%" x2="50.0748768%" y2="134.930051%" id="linearGradient-14">
            <stop stop-color="#EA2127" offset="0%"></stop>
            <stop stop-color="#B41F30" offset="100%"></stop>
        </linearGradient>
        <linearGradient x1="50.0917857%" y1="-2.27848101%" x2="50.0917857%" y2="135.272152%" id="linearGradient-15">
            <stop stop-color="#EA2127" offset="0%"></stop>
            <stop stop-color="#B41F30" offset="100%"></stop>
        </linearGradient>
        <linearGradient x1="50.1236559%" y1="-2.27848101%" x2="50.1236559%" y2="135.272152%" id="linearGradient-16">
            <stop stop-color="#EA2127" offset="0%"></stop>
            <stop stop-color="#B41F30" offset="100%"></stop>
        </linearGradient>
        <linearGradient x1="50.1414439%" y1="-2.27848101%" x2="50.1414439%" y2="135.272152%" id="linearGradient-17">
            <stop stop-color="#EA2127" offset="0%"></stop>
            <stop stop-color="#B41F30" offset="100%"></stop>
        </linearGradient>
        <linearGradient x1="50.1835227%" y1="-1.99329014%" x2="50.1835227%" y2="135.173713%" id="linearGradient-18">
            <stop stop-color="#EA2127" offset="0%"></stop>
            <stop stop-color="#B41F30" offset="100%"></stop>
        </linearGradient>
        <linearGradient x1="49.9969194%" y1="-2.27848101%" x2="49.9969194%" y2="135.271646%" id="linearGradient-19">
            <stop stop-color="#EA2127" offset="0%"></stop>
            <stop stop-color="#B41F30" offset="100%"></stop>
        </linearGradient>
        <linearGradient x1="49.9584229%" y1="-2.27848101%" x2="49.9584229%" y2="135.272152%" id="linearGradient-20">
            <stop stop-color="#EA2127" offset="0%"></stop>
            <stop stop-color="#B41F30" offset="100%"></stop>
        </linearGradient>
        <linearGradient x1="50.0260563%" y1="0.331757322%" x2="50.0260563%" y2="109.843389%" id="linearGradient-21">
            <stop stop-color="#EC2127" offset="25.6%"></stop>
            <stop stop-color="#D7202B" offset="52.45%"></stop>
            <stop stop-color="#B31F32" offset="100%"></stop>
        </linearGradient>
    </defs>
    <g id="Page-1" stroke="none" stroke-width="1" fill="none" fill-rule="evenodd">
        <g id="copa_del_rey">
            <path d="M25,64.5538893 L25,27.2727273 L44.3181818,27.2727273 C44.2542849,55.8556485 37.097825,66.4775387 25,64.5538893 Z" id="Shape" fill="url(#linearGradient-1)"></path>
            <path d="M67.0454545,52.2727273 C67.0454545,63.8791796 65.975805,71.1783014 60.7304083,75.4007585 C53.9422478,80.8750998 41.9086906,81.78749 33.5571962,79.538342 C29.0728963,78.3288945 25,75.8039076 25,71.4753587 L25,71.0722095 C36.005048,73.5123229 45.7347447,72.0270365 54.18909,66.5102584 C58.9202322,63.4123753 63.8570761,59.1050447 67.0454545,52.2727273 Z" id="Shape" fill="url(#linearGradient-2)"></path>
            <path d="M67.0454545,27.1170443 L48.7356709,27.1170443 C48.4874027,55.491629 40.4600625,68.7455469 24.6329614,66.8580562 C14.4953411,65.4061403 9.92306749,57.7524695 9.94375651,44.954868 C9.94375651,38.0064134 9.94375651,31.0787005 9.94375651,24.1302459 L15.9021946,24.1302459 C20.7434255,24.1302459 23.0399068,23.6531878 26.122571,19.3181818 L5.68181818,19.3181818 L5.68181818,40.619862 C5.68181818,53.7493299 9.50928707,66.4432231 24.6536505,68.9944467 C37.0877521,70.4463626 46.7081469,66.8580562 53.680347,61.3615175 C58.2939987,57.7317278 61.3559738,52.9818887 63.4041868,48.1075996 C66.1351376,41.6362031 67.0454545,34.1277238 67.0454545,27.1170443 Z" id="Shape" fill="url(#linearGradient-3)"></path>
            <path d="M36.1093963,19.3181818 C42.3183768,16.2316525 48.5484762,16.2316525 54.7785756,19.3181818 C56.594808,16.6252367 58.4110404,13.9322917 60.2272727,11.2393466 C56.7426408,12.6893939 55.0108844,10.3693182 53.7648645,6.99277936 C50.4703035,9.16785038 47.619241,8.42211174 45.443986,3.40909091 C43.8811814,7.51065341 41.3680226,9.29214015 37.1442264,7.01349432 C35.8770875,10.9286222 33.7863084,12.4822443 30.6818182,11.1979167 C32.4769316,13.9115767 34.2931639,16.6045218 36.1093963,19.3181818 Z" id="Shape" fill="url(#linearGradient-4)"></path>
            <path d="M45.4545455,2.27272727 C46.0795455,2.27272727 46.5909091,1.76332288 46.5909091,1.13636364 C46.5909091,0.509404389 46.0795455,0 45.4545455,0 C44.8295455,0 44.3181818,0.509404389 44.3181818,1.13636364 C44.3181818,1.76332288 44.8295455,2.27272727 45.4545455,2.27272727 Z" id="Shape" fill="url(#linearGradient-5)"></path>
            <path d="M54.2600558,3.44813439 C54.529373,3.61211627 54.6236341,4.22704834 54.4755096,4.8419804 C54.3139193,5.45691247 53.9638069,5.80537398 53.6944896,5.64139209 C53.4251724,5.47741021 53.3309114,4.86247814 53.4790359,4.24754607 C53.6406262,3.65311174 53.9907386,3.2841525 54.2600558,3.44813439 Z" id="Shape" fill="url(#linearGradient-6)"></path>
            <path d="M36.6490351,3.44813439 C36.3797179,3.61211627 36.2854568,4.22704834 36.4335813,4.8419804 C36.5951717,5.45691247 36.945284,5.80537398 37.2146013,5.64139209 C37.4839185,5.47741021 37.5781795,4.86247814 37.430055,4.24754607 C37.2684647,3.65311174 36.9183523,3.2841525 36.6490351,3.44813439 Z" id="Shape" fill="url(#linearGradient-7)"></path>
            <path d="M61.0764642,9.11338506 C61.3477838,9.200698 61.4446837,9.50629327 61.2896439,9.81188855 C61.1346041,10.1174838 60.7857646,10.2921097 60.5144449,10.2047968 C60.2431253,10.1174838 60.1462254,9.81188855 60.3012652,9.50629327 C60.456305,9.200698 60.8051445,9.02607213 61.0764642,9.11338506 Z" id="Shape" fill="url(#linearGradient-8)"></path>
            <path d="M30.9689904,9.11338506 C30.6976707,9.200698 30.6007709,9.50629327 30.7558107,9.81188855 C30.9108504,10.1174838 31.25969,10.2921097 31.5310096,10.2047968 C31.8023293,10.1174838 31.8992291,9.81188855 31.7441893,9.50629327 C31.6085295,9.200698 31.24031,9.02607213 30.9689904,9.11338506 Z" id="Shape" fill="url(#linearGradient-9)"></path>
            <path d="M25.3204411,88.3068405 C29.5975283,87.538711 34.1432249,86.9503565 38.8748817,86.6398361 C45.1768701,86.2149134 51.602832,86.2802861 57.9048204,86.8359543 C61.7686624,87.179161 65.4878687,87.6857996 69.0004524,88.3068405 C69.4343598,88.3885564 69.4136975,88.6663904 69.0004524,88.6337041 C61.7480002,88.0453496 54.4748857,87.6040837 47.181109,87.6040837 C39.8873323,87.6040837 32.6142179,88.0453496 25.3617657,88.6337041 C24.8865337,88.6663904 24.8865337,88.3885564 25.3204411,88.3068405 Z" id="Shape" fill="url(#linearGradient-10)"></path>
            <path d="M7.80606358,91.5617395 C6.95759572,91.1919053 5.87579919,90.9090909 4.98490794,90.9090909 C2.07890551,90.9090909 -0.021052444,92.8235268 0.000159252498,95.4341211 C0.0425826456,99.8286216 4.75157928,100.959879 7.95454545,99.219483 L7.19092438,97.3050471 C6.30003312,97.8924308 5.34550678,97.8924308 4.64552079,97.8924308 C3.07585525,97.8924308 2.05769382,96.8264381 2.05769382,95.499386 C2.05769382,94.7162077 2.39708096,94.085314 2.92737337,93.6719699 C4.11522838,92.736507 6.04549277,93.0193214 7.25455947,93.7589898 L7.80606358,91.5617395 Z" id="Shape" fill="url(#linearGradient-11)" fill-rule="nonzero"></path>
            <path d="M18.1818182,94.8863636 C18.1818182,93.8155594 17.7315609,92.8212413 16.8524871,92.0755026 C15.9948542,91.329764 14.8156089,90.9090909 13.6363636,90.9090909 C12.4571184,90.9090909 11.2778731,91.329764 10.4202401,92.0755026 C9.5626072,92.8212413 9.09090909,93.7964379 9.09090909,94.8863636 C9.09090909,96.1101399 9.66981132,97.1809441 10.7418525,97.9458042 C11.5566038,98.5194493 12.5857633,98.8636364 13.6363636,98.8636364 C14.8156089,98.8636364 15.9948542,98.4429633 16.8524871,97.6972247 C17.7101201,96.951486 18.1818182,95.9571678 18.1818182,94.8863636 L18.1818182,94.8863636 Z M13.6363636,96.989729 C12.1569468,96.989729 11.2135506,96.0718969 11.2135506,94.8863636 C11.2135506,93.7199519 12.1998285,92.7829983 13.6363636,92.7829983 C15.051458,92.7829983 16.0591767,93.7199519 16.0591767,94.8863636 C16.0591767,96.0527753 15.0728988,96.989729 13.6363636,96.989729 Z" id="Shape" fill="url(#linearGradient-12)" fill-rule="nonzero"></path>
            <path d="M22.4675325,95.511793 L22.4675325,93.848752 L23.2900433,93.848752 C24.2424242,93.848752 25.1948052,93.848752 25.1948052,94.6301809 C25.1948052,95.3915732 24.2640693,95.511793 23.2683983,95.511793 L22.4675325,95.511793 L22.4675325,95.511793 Z M22.4675325,100 L22.4675325,97.174834 L23.9393939,97.174834 C24.7402597,97.174834 25.4112554,97.1347607 25.995671,96.8141745 C26.7532468,96.3934051 27.2727273,95.7923059 27.2727273,94.7504007 C27.2727273,93.7285322 26.7532468,92.90703 25.995671,92.466224 C25.3246753,92.0654912 24.4805195,92.0454545 23.3982684,92.0454545 L20.4545455,92.0454545 L20.4545455,99.9799634 L22.4675325,99.9799634 L22.4675325,100 Z" id="Shape" fill="url(#linearGradient-13)" fill-rule="nonzero"></path>
            <path d="M28.4090909,100 L30.3095611,100 L31.0540752,98.0314509 L33.6598746,98.0314509 L34.3847962,100 L36.3636364,100 L33.346395,92.0454545 L31.4459248,92.0454545 L28.4090909,100 L28.4090909,100 Z M31.700627,96.3240358 L32.3863636,94.4960973 L33.0916928,96.3240358 L31.700627,96.3240358 Z" id="Shape" fill="url(#linearGradient-14)" fill-rule="nonzero"></path>
            <polygon id="Shape" fill="url(#linearGradient-15)" fill-rule="nonzero" points="57.9545455 100 63.6363636 100 63.6363636 98.1472957 59.8417208 98.1472957 59.8417208 92.0454545 57.9545455 92.0454545"></polygon>
            <polygon id="Shape" fill="url(#linearGradient-16)" fill-rule="nonzero" points="50 100 55.6818182 100 55.6818182 98.2278481 51.8532095 98.2278481 51.8532095 96.8785961 55.5392636 96.8785961 55.5392636 95.1668585 51.8532095 95.1668585 51.8532095 93.7974684 55.6818182 93.7974684 55.6818182 92.0454545 50 92.0454545"></polygon>
            <path d="M38.6576325,100 L41.1035489,100 C42.5710987,100 43.7834225,99.9597238 44.889402,99.2548907 C45.9953816,98.5500575 46.5909091,97.4424626 46.5909091,96.0327963 C46.5909091,94.6029919 45.9953816,93.5155351 44.889402,92.810702 C43.7196159,92.0857307 42.400948,92.0454545 40.7632474,92.0454545 L38.6363636,92.0454545 L38.6363636,100 L38.6576325,100 Z M40.6781721,98.2278481 L40.6781721,93.8377445 L41.1886242,93.8377445 C43.4218522,93.8377445 44.5278318,94.4620253 44.5278318,96.0327963 C44.5278318,97.5834292 43.4431211,98.2278481 41.1886242,98.2278481 L40.6781721,98.2278481 L40.6781721,98.2278481 Z" id="Shape" fill="url(#linearGradient-17)" fill-rule="nonzero"></path>
            <path d="M67.0648244,100 L68.7112603,100 L68.7112603,97.1684539 L69.4860537,97.1684539 L71.5973657,100 L73.8636364,100 L71.6942149,96.9274712 C72.1397211,96.6463248 72.4302686,96.3450965 72.6433368,96.0237863 C73.2631715,94.99961 73.1663223,93.2725677 72.2172004,92.509456 C71.558626,91.9873269 70.9969008,92.0475726 69.9315599,92.0475726 L67.0454545,92.0475726 L67.0454545,100 L67.0648244,100 Z M68.6918905,95.5217391 L68.6918905,93.8549424 L69.9121901,93.8549424 C70.7838326,93.8549424 71.1712293,94.0758432 71.1712293,94.7385455 C71.1712293,95.3008383 70.745093,95.5217391 69.8734504,95.5217391 L68.6918905,95.5217391 L68.6918905,95.5217391 Z" id="Shape" fill="url(#linearGradient-18)" fill-rule="nonzero"></path>
            <polygon id="Shape" fill="url(#linearGradient-19)" fill-rule="nonzero" points="86.3797932 100 88.38324 100 88.38324 96.5765247 92.0454545 92.0454545 89.417277 92.0454545 87.5 94.62313 85.5611805 92.0454545 82.9545455 92.0454545 86.3797932 96.5765247"></polygon>
            <path d="M39.2768595,83.192389 L39.2768595,84.0909091 L38.6363636,84.0909091 L38.6363636,81.8181818 L39.8140496,81.8181818 C40.0206612,81.8181818 40.2066116,81.8357999 40.3305785,81.888654 C40.4545455,81.9238901 40.5785124,82.0119803 40.661157,82.1176885 C40.7438017,82.2410148 40.785124,82.3643411 40.785124,82.5052854 C40.785124,82.7871741 40.6404959,82.9809725 40.3305785,83.0866808 L40.8264463,84.0909091 L40.1446281,84.0909091 L39.731405,83.192389 L39.2768595,83.192389 L39.2768595,83.192389 Z M39.2768595,82.2233968 L39.2768595,82.8047921 L39.6694215,82.8047921 C39.7933884,82.8047921 39.8760331,82.8047921 39.9380165,82.7871741 C40,82.769556 40.0413223,82.7343199 40.0826446,82.6814658 C40.1239669,82.6286117 40.1446281,82.5757576 40.1446281,82.5052854 C40.1446281,82.4348132 40.1239669,82.3819591 40.0826446,82.329105 C40.0413223,82.2762509 40,82.2410148 39.9380165,82.2410148 C39.8760331,82.2233968 39.7933884,82.2233968 39.6487603,82.2233968 L39.2768595,82.2233968 L39.2768595,82.2233968 Z M45.0826446,82.2586328 L43.822314,82.2586328 L43.822314,82.769556 L44.8140496,82.769556 L44.8140496,83.192389 L43.822314,83.192389 L43.822314,84.0909091 L43.1818182,84.0909091 L43.1818182,81.8181818 L45.0826446,81.8181818 L45.0826446,82.2586328 L45.0826446,82.2586328 Z M49.214876,82.2410148 L47.9338843,82.2410148 L47.9338843,82.7167019 L48.946281,82.7167019 L48.946281,83.1395349 L47.9338843,83.1395349 L47.9338843,83.63284 L49.214876,83.63284 L49.214876,84.0909091 L47.3140496,84.0909091 L47.3140496,81.8181818 L49.214876,81.8181818 L49.214876,82.2410148 L49.214876,82.2410148 Z M53.4090909,82.2586328 L52.1487603,82.2586328 L52.1487603,82.769556 L53.1404959,82.769556 L53.1404959,83.192389 L52.1487603,83.192389 L52.1487603,84.0909091 L51.5082645,84.0909091 L51.5082645,81.8181818 L53.4090909,81.8181818 L53.4090909,82.2586328 L53.4090909,82.2586328 Z" id="Shape" fill="#A41D3B" fill-rule="nonzero"></path>
            <polygon id="Shape" fill="url(#linearGradient-20)" fill-rule="nonzero" points="76.1363636 100 81.8181818 100 81.8181818 98.2278481 77.9692082 98.2278481 77.9692082 96.8785961 81.6552623 96.8785961 81.6552623 95.1668585 77.9692082 95.1668585 77.9692082 93.7974684 81.8181818 93.7974684 81.8181818 92.0454545 76.1363636 92.0454545"></polygon>
            <path d="M86.3636364,19.3181818 C86.3636364,25.6361734 86.3636364,31.9332446 86.3636364,38.2512362 C86.3636364,51.7031191 80.1490763,63.8370103 69.7160234,69.3181818 C78.173587,60.740776 81.9187854,49.3391023 81.9187854,37.4144161 L81.9187854,24.1926588 L73.68758,24.1926588 C70.1481617,24.1926588 67.9668923,22.3098136 65.9090909,19.3391023 L86.3636364,19.3391023 L86.3636364,19.3181818 Z" id="Shape" fill="url(#linearGradient-21)"></path>
        </g>
    </g>
</svg>