<?xml version="1.0" encoding="UTF-8"?>
<svg width="14px" height="14px" viewBox="0 0 14 14" version="1.1" xmlns="http://www.w3.org/2000/svg" xmlns:xlink="http://www.w3.org/1999/xlink">
    <!-- Generator: Sketch 47.1 (45422) - http://www.bohemiancoding.com/sketch -->
    <title>fb</title>
    <desc>Created with Sketch.</desc>
    <defs></defs>
    <g id="Page-1" stroke="none" stroke-width="1" fill="none" fill-rule="evenodd">
        <g id="fb" fill-rule="nonzero" fill="#4A4B4C">
            <path d="M7,0.5 C3.3,0.5 0.3,3.5 0.3,7.2 C0.3,10.9 3.3,13.9 7,13.9 C10.7,13.9 13.7,10.9 13.7,7.2 C13.7,3.5 10.7,0.5 7,0.5 Z M8.8,7.2 L7.6,7.2 C7.6,9.1 7.6,11.3 7.6,11.3 L5.9,11.3 C5.9,11.3 5.9,9 5.9,7.2 L5.1,7.2 L5.1,5.7 L5.9,5.7 L5.9,4.8 C5.9,4.1 6.2,3.1 7.6,3.1 L8.9,3.1 L8.9,4.5 C8.9,4.5 8.1,4.5 8,4.5 C7.8,4.5 7.6,4.6 7.6,4.9 L7.6,5.8 L8.9,5.8 L8.8,7.2 Z" id="XMLID_587_"></path>
        </g>
    </g>
</svg>