<?xml version="1.0" encoding="UTF-8"?>
<svg width="14px" height="14px" viewBox="0 0 14 14" version="1.1" xmlns="http://www.w3.org/2000/svg" xmlns:xlink="http://www.w3.org/1999/xlink">
    <!-- Generator: Sketch 47.1 (45422) - http://www.bohemiancoding.com/sketch -->
    <title>instagram</title>
    <desc>Created with Sketch.</desc>
    <defs></defs>
    <g id="Page-1" stroke="none" stroke-width="1" fill="none" fill-rule="evenodd">
        <g id="instagram" fill-rule="nonzero" fill="#4A4B4C">
            <polygon id="XMLID_582_" points="9.8 5.8 9.8 4.8 9.8 4.6 9.7 4.6 8.7 4.6 8.7 5.8"></polygon>
            <path d="M9.1,7.3 C9.1,8.3 8.2,9.2 7.2,9.2 C6.2,9.2 5.3,8.3 5.3,7.3 C5.3,7 5.4,6.8 5.4,6.6 L4.4,6.6 L4.4,9.5 C4.4,9.9 4.7,10.2 5.1,10.2 L9.4,10.2 C9.8,10.2 10.1,9.9 10.1,9.5 L10.1,6.6 L9.1,6.6 C9,6.8 9.1,7 9.1,7.3 Z" id="XMLID_583_"></path>
            <path d="M7.2,8.5 C7.9,8.5 8.4,8 8.4,7.3 C8.4,7 8.3,6.8 8.2,6.6 C8,6.3 7.6,6.1 7.2,6.1 C6.8,6.1 6.4,6.3 6.2,6.6 C6.1,6.8 6,7 6,7.3 C5.9,8 6.5,8.5 7.2,8.5 Z" id="XMLID_585_"></path>
            <path d="M7.2,0.6 C3.5,0.6 0.5,3.6 0.5,7.3 C0.5,11 3.5,14 7.2,14 C10.9,14 13.9,11 13.9,7.3 C13.8,3.6 10.9,0.6 7.2,0.6 Z M10.6,6.6 L10.6,9.5 C10.6,10.2 10,10.8 9.3,10.8 L5,10.8 C4.3,10.8 3.7,10.2 3.7,9.5 L3.7,6.6 L3.7,5.2 C3.7,4.5 4.3,3.9 5,3.9 L9.3,3.9 C10,3.9 10.6,4.5 10.6,5.2 L10.6,6.6 Z" id="XMLID_589_"></path>
        </g>
    </g>
</svg>