<?xml version="1.0" encoding="UTF-8"?>
<svg width="186px" height="43px" viewBox="0 0 186 43" version="1.1" xmlns="http://www.w3.org/2000/svg" xmlns:xlink="http://www.w3.org/1999/xlink">
    <!-- Generator: Sketch 47.1 (45422) - http://www.bohemiancoding.com/sketch -->
    <title>logo-whole</title>
    <desc>Created with Sketch.</desc>
    <defs></defs>
    <g id="Page-1" stroke="none" stroke-width="1" fill="none" fill-rule="evenodd">
        <g id="logo-whole" fill-rule="nonzero">
            <g id="XMLID_464_" transform="translate(0.000000, 16.000000)" fill="#FFFFFF">
                <path d="M6.73191489,0.244444444 L6.73191489,5.5 L6.67234043,5.5 L4.05106383,0.977777778 C3.69361702,0.427777778 3.39574468,0.244444444 2.74042553,0.244444444 L0.119148936,0.244444444 L0.119148936,10.5111111 L3.03829787,10.5111111 L3.03829787,4.64444444 L3.09787234,4.64444444 L6.19574468,9.77777778 C6.55319149,10.3277778 6.85106383,10.5111111 7.50638298,10.5111111 L9.65106383,10.5111111 L9.65106383,1.16111111 L8.75744681,0.244444444 L6.73191489,0.244444444 Z" id="XMLID_474_"></path>
                <polygon id="XMLID_473_" points="11.5574468 0.244444444 11.5574468 10.45 14.6553191 10.45 14.6553191 1.1 13.7617021 0.244444444"></polygon>
                <polygon id="XMLID_472_" points="25.0808511 8.67777778 22.5191489 5.07222222 25.0808511 1.58888889 25.0808511 0.244444444 22.8170213 0.244444444 20.0170213 4.15555556 19.6595745 4.15555556 19.6595745 1.1 18.8255319 0.244444444 16.6212766 0.244444444 16.6212766 10.45 19.6595745 10.45 19.6595745 6.41666667 20.0765957 6.41666667 22.7574468 10.45 25.0808511 10.45"></polygon>
                <path d="M28.9531915,10.45 L32.2893617,10.45 C33.3021277,10.45 33.8978723,10.2666667 34.2553191,9.83888889 C34.8510638,9.22777778 35.3276596,8.12777778 35.3276596,5.31666667 C35.3276596,2.50555556 34.8510638,1.34444444 34.2553191,0.794444444 C33.8978723,0.427777778 33.3021277,0.183333333 32.2893617,0.183333333 L28.9531915,0.183333333 C27.9404255,0.183333333 27.3446809,0.366666667 26.987234,0.794444444 C26.3914894,1.40555556 25.9148936,2.50555556 25.9148936,5.31666667 C25.9148936,8.12777778 26.3914894,9.28888889 26.987234,9.83888889 C27.3446809,10.2666667 27.8808511,10.45 28.9531915,10.45 Z M29.3106383,2.75 C29.3702128,2.68888889 29.5489362,2.62777778 29.9659574,2.62777778 L31.2170213,2.62777778 C31.6340426,2.62777778 31.812766,2.62777778 31.8723404,2.75 C31.9914894,2.87222222 32.1702128,3.11666667 32.1702128,5.37777778 C32.1702128,7.63888889 31.9914894,7.88333333 31.8723404,8.00555556 C31.812766,8.06666667 31.6340426,8.12777778 31.2170213,8.12777778 L29.9659574,8.12777778 C29.5489362,8.12777778 29.3702128,8.12777778 29.3106383,8.00555556 C29.1914894,7.88333333 29.012766,7.63888889 29.012766,5.37777778 C29.012766,3.11666667 29.1914894,2.81111111 29.3106383,2.75 Z" id="XMLID_469_"></path>
                <polygon id="XMLID_468_" points="44.6212766 8.12777778 39.9744681 8.12777778 39.9744681 1.1 39.0808511 0.244444444 36.8765957 0.244444444 36.8765957 10.45 44.6212766 10.45"></polygon>
                <path d="M48.7319149,8.25 L51.8297872,8.25 L52.4851064,10.45 L55.7021277,10.45 L52.6638298,1.1 C52.4255319,0.366666667 52.306383,0.122222222 51.5914894,0.122222222 L49.1489362,0.122222222 C48.493617,0.122222222 48.3744681,0.305555556 48.0765957,1.1 L45.0382979,10.45 L48.1361702,10.45 L48.7319149,8.25 Z M50.1617021,3.05555556 L50.3404255,3.05555556 L51.1744681,6.05 L49.3276596,6.05 L50.1617021,3.05555556 Z" id="XMLID_465_"></path>
            </g>
            <g id="XMLID_452_" transform="translate(122.000000, 14.000000)" fill="#FFFFFF">
                <path d="M8.13457944,2.04285714 C7.71588785,2.04285714 7.5364486,2.16666667 7.41682243,2.66190476 L6.10093458,7.36666667 L5.98130841,7.36666667 L4.60560748,2.66190476 C4.48598131,2.22857143 4.30654206,2.04285714 3.88785047,2.04285714 L0,2.04285714 L0,12.4428571 L2.81121495,12.4428571 L2.81121495,6.12857143 L2.93084112,6.12857143 L4.72523364,11.8238095 C4.84485981,12.2571429 5.02429907,12.4428571 5.38317757,12.4428571 L6.4,12.4428571 C6.7588785,12.4428571 6.87850467,12.3190476 7.05794393,11.8238095 L8.85233645,6.12857143 L8.97196262,6.12857143 L8.97196262,12.4428571 L11.9028037,12.4428571 L11.9028037,2.97142857 L11.0654206,2.1047619 L8.13457944,2.1047619 L8.13457944,2.04285714 Z" id="XMLID_463_"></path>
                <polygon id="XMLID_462_" points="13.9364486 2.04285714 13.9364486 12.4428571 16.9869159 12.4428571 16.9869159 2.90952381 16.1495327 2.04285714"></polygon>
                <path d="M26.2579439,7.8 L26.2579439,7.8 C27.3943925,7.55238095 27.9925234,6.93333333 27.9925234,5.01428571 C27.9925234,3.59047619 27.753271,3.03333333 27.3345794,2.6 C26.9757009,2.22857143 26.3775701,2.04285714 25.3607477,2.04285714 L18.9607477,2.04285714 L18.9607477,12.4428571 L22.071028,12.4428571 L22.071028,8.85238095 L23.5663551,8.85238095 C24.2242991,8.85238095 24.3439252,8.91428571 24.4635514,9.03809524 C24.6429907,9.16190476 24.7028037,9.34761905 24.7626168,10.0904762 C24.7626168,10.9571429 24.8224299,11.7 24.9420561,12.3809524 L28.0523364,12.3809524 C27.9925234,11.8238095 27.9327103,10.8333333 27.8728972,9.78095238 C27.8728972,8.35714286 27.2747664,8.04761905 26.2579439,7.8 Z M24.5233645,6.5 C24.4635514,6.56190476 24.2841121,6.62380952 23.7457944,6.62380952 L22.071028,6.62380952 L22.071028,4.3952381 L23.7457944,4.3952381 C24.2841121,4.3952381 24.4635514,4.3952381 24.5233645,4.51904762 C24.6429907,4.64285714 24.7626168,4.89047619 24.7626168,5.50952381 C24.7626168,6.12857143 24.7028037,6.37619048 24.5233645,6.5 Z" id="XMLID_459_"></path>
                <path d="M35.8878505,2.04285714 L32.5383178,2.04285714 C31.4616822,2.04285714 30.9233645,2.22857143 30.564486,2.66190476 C29.9663551,3.28095238 29.4878505,4.3952381 29.4878505,7.24285714 C29.4878505,10.0904762 29.9663551,11.2666667 30.564486,11.8238095 C30.9233645,12.1952381 31.5214953,12.4428571 32.5383178,12.4428571 L35.8878505,12.4428571 C36.964486,12.4428571 37.5028037,12.2571429 37.8616822,11.8238095 C38.4598131,11.2047619 38.9383178,10.0904762 38.9383178,7.24285714 C38.9383178,4.3952381 38.4598131,3.21904762 37.8616822,2.66190476 C37.5028037,2.22857143 36.964486,2.04285714 35.8878505,2.04285714 Z M35.528972,9.9047619 C35.4691589,9.96666667 35.2897196,10.0285714 34.871028,10.0285714 L33.6149533,10.0285714 C33.1962617,10.0285714 33.0168224,10.0285714 32.9570093,9.9047619 C32.8373832,9.78095238 32.6579439,9.53333333 32.6579439,7.24285714 C32.6579439,4.95238095 32.8373832,4.7047619 32.9570093,4.58095238 C33.0168224,4.51904762 33.1962617,4.45714286 33.6149533,4.45714286 L34.871028,4.45714286 C35.2897196,4.45714286 35.4691589,4.45714286 35.528972,4.58095238 C35.6485981,4.7047619 35.8280374,4.95238095 35.8280374,7.24285714 C35.8280374,9.53333333 35.588785,9.78095238 35.528972,9.9047619 Z" id="XMLID_456_"></path>
                <polygon id="XMLID_455_" points="45.8766355 2.04285714 45.8766355 0.247619048 42.7663551 0.247619048 42.7663551 2.04285714 39.835514 2.04285714 39.835514 4.51904762 42.7663551 4.51904762 42.7663551 6.5 41.1514019 6.06666667 41.1514019 8.48095238 42.7663551 8.91428571 42.7663551 12.4428571 45.8766355 12.4428571 45.8766355 9.84285714 47.4915888 10.3380952 47.4915888 7.92380952 45.8766355 7.42857143 45.8766355 4.51904762 48.8672897 4.51904762 48.8672897 2.90952381 48.0299065 2.04285714"></polygon>
                <polygon id="XMLID_454_" points="50.0037383 2.04285714 50.0037383 12.4428571 53.0542056 12.4428571 53.0542056 2.97142857 52.2168224 2.04285714"></polygon>
                <path d="M60.5906542,9.9047619 C60.5308411,9.96666667 60.3514019,10.0285714 59.9327103,10.0285714 L58.6168224,10.0285714 C58.1981308,10.0285714 58.0186916,10.0285714 57.9588785,9.9047619 C57.8392523,9.78095238 57.6598131,9.53333333 57.6598131,7.24285714 C57.6598131,4.95238095 57.8392523,4.7047619 57.9588785,4.58095238 C58.0186916,4.51904762 58.1981308,4.45714286 58.6168224,4.45714286 L59.8728972,4.45714286 C60.2915888,4.45714286 60.471028,4.45714286 60.5308411,4.58095238 C60.5906542,4.64285714 60.7102804,4.89047619 60.7700935,6.12857143 L63.6411215,6.12857143 C63.6411215,4.02380952 63.3420561,3.15714286 62.8635514,2.6 C62.5046729,2.22857143 61.9663551,1.98095238 60.8897196,1.98095238 L57.5401869,1.98095238 C56.5233645,1.98095238 55.9252336,2.16666667 55.5663551,2.6 C54.9682243,3.21904762 54.4897196,4.33333333 54.4897196,7.18095238 C54.4897196,10.0285714 54.9682243,11.2047619 55.5663551,11.7619048 C55.9252336,12.1333333 56.5233645,12.3809524 57.5401869,12.3809524 L60.8897196,12.3809524 C61.9065421,12.3809524 62.4448598,12.1952381 62.8635514,11.7619048 C63.4018692,11.2666667 63.5813084,10.3380952 63.6411215,8.17142857 L60.7700935,8.17142857 C60.7700935,9.65714286 60.6504673,9.84285714 60.5906542,9.9047619 Z" id="XMLID_453_"></path>
            </g>
            <g id="XMLID_417_" transform="translate(64.000000, 0.000000)">
                <g id="XMLID_427_" transform="translate(9.528090, 12.541667)" fill="#FFFFFF">
                    <path d="M0.833707865,2.03055556 L0.297752809,0.119444444 C0.416853933,0.776388889 0.595505618,1.43333333 0.833707865,2.03055556 Z" id="XMLID_450_"></path>
                </g>
                <path d="M41.0898876,14.8708333 C39.4820225,19.1111111 36.2067416,22.5152778 32.0382022,24.2472222 L32.0382022,30.2791667 C33.9438202,29.6819444 35.7303371,28.9055556 37.3977528,27.8305556 L33.705618,40.85 L40.0179775,39.2375 L48.2955056,9.97361111 C46.211236,10.5708333 44.1269663,11.0486111 41.9831461,11.4666667 C42.0426966,11.5263889 41.3876404,14.0347222 41.0898876,14.8708333 Z" id="XMLID_426_" fill="#B4830A"></path>
                <path d="M22.9269663,13.0194444 L22.9269663,25.2625 C17.0910112,24.2472222 12.2674157,20.0666667 10.3617978,14.5722222 C10.1235955,13.975 9.46853933,11.5263889 9.46853933,11.5263889 C7.38426966,11.1083333 5.24044944,10.6305556 3.15617978,10.0333333 L11.4337079,39.2972222 L17.7460674,40.9097222 L14.0539326,27.8305556 C16.6741573,29.5027778 19.6516854,30.5777778 22.8674157,30.9958333 L22.8674157,42.1638889 L25.6662921,42.8805556 L28.4651685,42.1638889 L28.4651685,13.0194444 C26.6786517,13.0791667 24.8325843,13.0791667 22.9269663,13.0194444 Z" id="XMLID_425_" fill="#FFFFFF"></path>
                <path d="M51.3325843,0.0597222222 C34.7775281,5.25555556 16.9719101,5.25555556 0.416853933,0.119444444 L1.19101124,2.92638889 L2.14382022,6.33055556 C17.6269663,10.75 34.0629213,10.75 49.5460674,6.27083333 L50.4988764,2.92638889 L51.3325843,0.0597222222 Z" id="XMLID_424_" fill="#FFFFFF"></path>
                <g id="XMLID_418_" transform="translate(48.831461, 10.152778)" fill="#FFFFFF">
                    <path d="M3.87078652,2.26944444 C3.87078652,3.225 3.09662921,4.00138889 2.14382022,4.00138889 C1.19101124,4.00138889 0.416853933,3.225 0.416853933,2.26944444 C0.416853933,1.31388889 1.19101124,0.5375 2.14382022,0.5375 C3.15617978,0.5375 3.87078652,1.31388889 3.87078652,2.26944444 Z M3.63258427,2.26944444 C3.63258427,1.49305556 3.03707865,0.836111111 2.20337079,0.836111111 C1.36966292,0.836111111 0.774157303,1.49305556 0.774157303,2.26944444 C0.774157303,3.04583333 1.36966292,3.70277778 2.20337079,3.70277778 C2.97752809,3.70277778 3.63258427,3.04583333 3.63258427,2.26944444 Z M2.56067416,2.50833333 L2.97752809,3.10555556 L2.62022472,3.10555556 L2.32247191,2.56805556 L2.26292135,2.56805556 L1.78651685,2.56805556 L1.78651685,3.10555556 L1.48876404,3.10555556 L1.48876404,1.37361111 L2.20337079,1.37361111 C2.67977528,1.37361111 2.91797753,1.6125 2.91797753,1.97083333 C2.91797753,2.20972222 2.7988764,2.38888889 2.56067416,2.50833333 Z M2.20337079,2.32916667 C2.44157303,2.32916667 2.62022472,2.20972222 2.62022472,1.97083333 C2.62022472,1.73194444 2.44157303,1.6125 2.20337079,1.6125 L1.78651685,1.6125 L1.78651685,2.32916667 L2.20337079,2.32916667 Z" id="XMLID_419_"></path>
                </g>
            </g>
        </g>
    </g>
</svg>