<?xml version="1.0" encoding="UTF-8"?>
<svg width="151px" height="124px" viewBox="0 0 151 124" version="1.1" xmlns="http://www.w3.org/2000/svg" xmlns:xlink="http://www.w3.org/1999/xlink">
    <!-- Generator: Sketch 47.1 (45422) - http://www.bohemiancoding.com/sketch -->
    <title>logo</title>
    <desc>Created with Sketch.</desc>
    <defs></defs>
    <g id="Page-1" stroke="none" stroke-width="1" fill="none" fill-rule="evenodd">
        <g id="logo" fill-rule="nonzero">
            <g id="XMLID_12_" transform="translate(27.000000, 36.000000)" fill="#FFFFFF">
                <path d="M1.46666667,5.925 L0.133333333,0.6 C0.466666667,2.475 0.933333333,4.2 1.46666667,5.925 Z" id="XMLID_13_"></path>
            </g>
            <g id="XMLID_9_" transform="translate(7.000000, 29.000000)">
                <path d="M109.7125,14.0163934 C105.111905,26.1639344 95.6767857,35.9754098 83.6684524,40.9590164 L83.6684524,58.1680328 C89.2047619,56.5327869 94.3511905,54.1967213 99.1077381,51.1598361 L88.425,88.5368852 L106.671429,83.942623 L130.532143,0 C124.527976,1.6352459 118.445833,3.03688525 112.36369,4.20491803 C112.441667,4.36065574 110.570238,11.6803279 109.7125,14.0163934 Z" id="XMLID_11_" fill="#B4840A"></path>
                <path d="M57.4684524,8.72131148 L57.4684524,43.9180328 C40.6255952,40.9590164 26.8238095,29.045082 21.2095238,13.2377049 C20.5857143,11.4467213 18.7142857,4.43852459 18.7142857,4.43852459 C12.6321429,3.2704918 6.55,1.86885246 0.545833333,0.233606557 L24.4845238,84.0983607 L42.7309524,88.692623 L32.0482143,51.2377049 C39.6119048,55.9877049 48.1892857,59.1803279 57.4684524,60.3483607 L57.4684524,92.352459 L65.5779762,94.3770492 L73.6875,92.352459 L73.6875,8.72131148 C68.3071429,8.87704918 62.8488095,8.87704918 57.4684524,8.72131148 Z" id="XMLID_10_" fill="#FFFFFF"></path>
            </g>
            <path d="M146,0 C98.4976077,14.6090178 47.5800106,14.6090178 0,0.152974009 L2.25093036,8.10762247 L4.96757044,17.668498 C49.3652313,30.1358797 96.4795322,30.1358797 140.877193,17.515524 L143.593833,8.10762247 L146,0 Z" id="XMLID_8_" fill="#FFFFFF"></path>
            <g id="XMLID_2_" transform="translate(140.000000, 31.000000)" fill="#FFFFFF">
                <path d="M10.7642857,5.5 C10.7642857,8.25 8.56428571,10.5285714 5.73571429,10.5285714 C2.90714286,10.5285714 0.707142857,8.25 0.707142857,5.5 C0.707142857,2.75 2.90714286,0.471428571 5.73571429,0.471428571 C8.56428571,0.471428571 10.7642857,2.75 10.7642857,5.5 Z M9.9,5.5 C9.9,3.22142857 8.09285714,1.33571429 5.73571429,1.33571429 C3.37857143,1.33571429 1.57142857,3.22142857 1.57142857,5.5 C1.57142857,7.77857143 3.37857143,9.66428571 5.73571429,9.66428571 C8.09285714,9.66428571 9.9,7.77857143 9.9,5.5 Z M6.83571429,6.20714286 L8.01428571,7.85714286 L7.07142857,7.85714286 L6.12857143,6.36428571 L5.89285714,6.36428571 L4.71428571,6.36428571 L4.71428571,7.85714286 L3.85,7.85714286 L3.85,2.82857143 L5.89285714,2.82857143 C7.22857143,2.82857143 7.93571429,3.45714286 7.93571429,4.55714286 C7.85714286,5.34285714 7.54285714,5.89285714 6.83571429,6.20714286 Z M5.89285714,5.65714286 C6.67857143,5.65714286 7.15,5.26428571 7.15,4.63571429 C7.15,4.00714286 6.67857143,3.61428571 5.89285714,3.61428571 L4.71428571,3.61428571 L4.71428571,5.65714286 L5.89285714,5.65714286 L5.89285714,5.65714286 Z" id="XMLID_3_"></path>
            </g>
        </g>
    </g>
</svg>