<?xml version="1.0" encoding="UTF-8"?>
<svg width="100px" height="101px" viewBox="0 0 100 101" version="1.1" xmlns="http://www.w3.org/2000/svg" xmlns:xlink="http://www.w3.org/1999/xlink">
    <!-- Generator: Sketch 48.2 (47327) - http://www.bohemiancoding.com/sketch -->
    <title>Nm Icon_01 (1)</title>
    <desc>Created with Sketch.</desc>
    <defs></defs>
    <g id="Page-1" stroke="none" stroke-width="1" fill="none" fill-rule="evenodd" stroke-linecap="round" stroke-linejoin="round">
        <g id="Nm-Icon_01-(1)" stroke="#FFFFFF">
            <path d="M38.089172,67.4566474 C38.089172,67.4566474 35.2866242,72.7745665 28.2802548,72.9479769" id="XMLID_269_"></path>
            <path d="M43.8853503,71.9653179 C39.4904459,73.1213873 34.5859873,77.3410405 33.9490446,81.4450867" id="XMLID_268_"></path>
            <path d="M32.1656051,78.0346821 C32.1656051,78.0346821 26.4968153,80.6936416 24.5859873,84.7398844 C23.8216561,86.3583815 21.910828,87.3410405 20.3821656,87.3410405 C15.2229299,87.3410405 13.8216561,82.3699422 14.9044586,80.3468208 C15.5414013,79.132948 17.4522293,76.9942197 20.8917197,77.6878613 C24.3949045,78.3815029 27.5159236,78.0346821 33.1210191,74.2774566" id="XMLID_83_"></path>
            <g id="XMLID_262_" transform="translate(60.509554, 67.052023)">
                <path d="M6.24203822,0.404624277 C6.24203822,0.404624277 9.04458599,5.72254335 16.0509554,5.89595376" id="XMLID_266_"></path>
                <path d="M0.445859873,4.9132948 C4.84076433,6.06936416 9.74522293,10.2890173 10.3821656,14.3930636" id="XMLID_265_"></path>
                <path d="M19.4904459,10.8092486 C17.1974522,10.5780347 14.7770701,9.59537572 11.2738854,7.16763006" id="XMLID_264_"></path>
                <path d="M12.2292994,10.982659 C12.2292994,10.982659 17.8980892,13.6416185 19.8089172,17.6878613 C20.5732484,19.3063584 22.4840764,20.2890173 24.0127389,20.2890173 C28.4713376,20.2890173 30.0636943,16.6473988 29.8089172,14.3352601" id="XMLID_263_"></path>
            </g>
            <path d="M18.343949,79.8843931 L1.27388535,53.583815" id="XMLID_261_"></path>
            <path d="M25.7324841,90.982659 L22.9936306,86.7630058" id="XMLID_260_"></path>
            <path d="M0.382165605,57.9190751 L6.24203822,54.6820809" id="XMLID_259_"></path>
            <g id="XMLID_244_" transform="translate(35.668790, 72.832370)">
                <path d="M10.0636943,0.231213873 C10.0636943,0.231213873 9.93630573,11.3294798 0.50955414,14.8554913 C0.573248408,14.8554913 3.50318471,16.0115607 3.50318471,16.0115607" id="XMLID_258_"></path>
                <path d="M10.7643312,12.2543353 C9.04458599,15.7803468 3.18471338,18.6127168 3.18471338,18.6127168 L6.36942675,20.1156069" id="XMLID_257_"></path>
                <path d="M14.0127389,16.2427746 C11.7834395,20.5202312 8.02547771,22.1965318 8.02547771,22.1965318 L12.5477707,24.3352601" id="XMLID_256_"></path>
                <path d="M22.866242,0.231213873 C22.866242,0.231213873 22.9936306,11.3294798 32.4203822,14.8554913 C32.3566879,14.8554913 29.4267516,16.0115607 29.4267516,16.0115607" id="XMLID_255_"></path>
                <path d="M22.1656051,12.2543353 C23.8853503,15.7803468 29.7452229,18.6127168 29.7452229,18.6127168 L26.5605096,20.1156069" id="XMLID_254_"></path>
                <path d="M18.9171975,16.2427746 C21.1464968,20.5202312 24.9044586,22.1965318 24.9044586,22.1965318 L20.3821656,24.3352601" id="XMLID_253_"></path>
            </g>
            <path d="M51.9745223,92.8323699 L51.9745223,99.7687861" id="XMLID_240_"></path>
            <path d="M49.2993631,1.73410405 L54.3949045,1.73410405" id="XMLID_218_"></path>
            <path d="M47.388535,17.5144509 C41.4649682,8.55491329 51.0828025,6.06936416 51.0828025,6.06936416 C51.0828025,6.06936416 40.3821656,7.34104046 40.3821656,13.2947977 C40.3821656,17.5722543 43.6942675,17.6878613 43.6942675,17.6878613 L51.8471338,17.6878613 L51.8471338,0.0578034682" id="XMLID_217_"></path>
            <path d="M68.5350318,61.0404624 C66.6242038,52.4855491 65.7961783,48.150289 68.5350318,45.0867052 L64.9681529,40.2890173 C64.9681529,40.2890173 55.477707,41.0404624 52.2929936,37.8034682 C48.7261146,41.2138728 39.6178344,40.2890173 39.6178344,40.2890173 L36.0509554,45.0867052 C38.7898089,48.150289 37.9617834,52.4855491 36.0509554,61.0404624 C34.1401274,69.5953757 52.2929936,75.5491329 52.2929936,75.5491329 C52.2929936,75.5491329 70.3821656,69.5953757 68.5350318,61.0404624 Z" id="XMLID_216_"></path>
            <path d="M55.9235669,17.5144509 C61.8471338,8.55491329 52.2292994,6.06936416 52.2292994,6.06936416 C52.2292994,6.06936416 62.9299363,7.34104046 62.9299363,13.2947977 C62.9299363,17.5722543 59.6178344,17.6878613 59.6178344,17.6878613 L51.5923567,17.6878613" id="XMLID_214_"></path>
            <g id="XMLID_208_" transform="translate(79.617834, 67.052023)">
                <g id="XMLID_210_">
                    <ellipse id="XMLID_213_" cx="6.56050955" cy="9.65317919" rx="6.30573248" ry="5.72254335"></ellipse>
                    <path d="M11.9745223,0.289017341 L3.75796178,14.6242775" id="XMLID_212_"></path>
                    <path d="M8.02547771,0.98265896 L13.566879,3.58381503" id="XMLID_211_"></path>
                </g>
                <path d="M1.65605096,7.22543353 L11.7197452,11.9653179" id="XMLID_209_"></path>
            </g>
            <ellipse id="XMLID_207_" cx="50.3184713" cy="48.4971098" rx="1" ry="1"></ellipse>
            <ellipse id="XMLID_224_" cx="38.5350318" cy="25.7803468" rx="1" ry="1"></ellipse>
            <ellipse id="XMLID_195_" cx="66.1146497" cy="25.7803468" rx="1" ry="1"></ellipse>
            <path d="M38.8535032,62.6589595 L65.8598726,62.6589595" id="XMLID_206_"></path>
            <path d="M43.8853503,62.6011561 C43.8853503,62.6011561 46.0509554,60 46.6878981,57.8612717" id="XMLID_205_"></path>
            <path d="M51.0191083,55.5491329 C51.4649682,55.3179191 51.8471338,55.1445087 52.2292994,54.9132948 C52.611465,54.6820809 52.9936306,54.3930636 53.2484076,54.1040462 C53.6305732,53.699422 53.9490446,53.2947977 54.1401274,52.8901734 C54.3949045,52.4277457 54.4585987,51.9075145 54.522293,51.4450867 C54.522293,50.9248555 54.4585987,50.4046243 54.2675159,49.8843931 C54.1401274,49.4219653 53.9490446,48.9595376 53.6942675,48.5549133 C53.5031847,48.265896 53.3121019,47.9768786 53.1210191,47.6878613 C52.3566879,46.6473988 51.5923567,45.9537572 51.5923567,45.9537572 L46.1783439,47.5722543 L46.5605096,50.0578035 L49.5541401,51.0404624 L47.6433121,52.0231214 C46.6878981,52.4855491 45.6050955,53.2947977 45.2866242,54.0462428 C44.2675159,56.5317919 46.433121,58.4971098 49.2993631,58.3815029 C52.0382166,58.265896 54.6496815,56.5895954 56.5605096,56.8208092 C56.5605096,56.8208092 56.5605096,59.4797688 59.7452229,59.017341" id="XMLID_116_"></path>
            <path d="M44.8407643,54.1040462 C44.8407643,54.1040462 40.8917197,52.0809249 41.9745223,48.265896" id="XMLID_203_"></path>
            <path d="M54.1401274,53.583815 C54.1401274,53.583815 62.1019108,52.4277457 60.4458599,56.2427746 C60.4458599,56.2427746 63.5031847,58.150289 60.2547771,62.5433526" id="XMLID_202_"></path>
            <path d="M52.1656051,62.6011561 C52.1656051,62.6011561 55.7324841,60.982659 55.6050955,57.1676301" id="XMLID_201_"></path>
            <path d="M60.6369427,54.2774566 C60.6369427,54.2774566 63.0573248,53.8728324 62.611465,52.3121387 C62.0382166,49.9421965 57.5796178,51.2716763 57.0063694,49.4219653 C56.5605096,47.6878613 59.044586,47.0520231 60.7643312,47.0520231" id="XMLID_200_"></path>
            <path d="M59.5541401,45.8381503 C59.5541401,45.8381503 61.4649682,45.6069364 63.0573248,45.7803468" id="XMLID_199_"></path>
            <path d="M44.9681529,48.8439306 L46.3057325,48.8439306" id="XMLID_198_"></path>
            <g id="XMLID_183_" transform="translate(5.095541, 13.294798)">
                <path d="M12.866242,31.2138728 C8.28025478,29.017341 3.75796178,25.4913295 0.828025478,19.8843931 C0.573248408,21.7919075 0.50955414,23.7572254 0.700636943,25.7803468" id="XMLID_194_"></path>
                <path d="M13.8216561,38.6705202 C10.3184713,38.265896 6.62420382,37.3410405 3.05732484,35.433526 C3.69426752,36.8786127 4.39490446,38.3236994 5.22292994,39.7109827" id="XMLID_193_"></path>
                <path d="M12.9936306,34.9710983 C8.85350318,33.8150289 4.64968153,31.734104 1.01910828,28.2080925 C1.33757962,30 1.71974522,31.734104 2.29299363,33.4104046" id="XMLID_192_"></path>
                <path d="M13.4394904,27.4566474 C8.72611465,24.0462428 4.58598726,18.9595376 3.31210191,11.5028902 C2.42038217,13.3526012 1.71974522,15.3179191 1.27388535,17.3410405" id="XMLID_191_"></path>
                <path d="M14.7770701,23.8150289 C10.5732484,19.3063584 7.38853503,12.9479769 8.28025478,4.39306358 C6.87898089,5.89595376 5.60509554,7.4566474 4.52229299,9.19075145" id="XMLID_190_"></path>
                <path d="M23.5031847,50.867052 C21.9745223,51.7919075 20.2547771,52.6589595 18.343949,53.3526012 C19.3630573,54.0462428 20.3821656,54.6242775 21.4649682,55.2601156" id="XMLID_189_"></path>
                <path d="M27.1974522,52.8901734 C25.9235669,53.9884393 24.4585987,55.0289017 22.866242,55.9537572 C23.9490446,56.4739884 25.0318471,56.9942197 26.1783439,57.4566474" id="XMLID_188_"></path>
                <path d="M10.1273885,2.71676301 C11.2101911,1.79190751 12.3566879,0.867052023 13.6305732,0.0578034682 C11.910828,8.43930636 13.9490446,14.7976879 17.388535,19.6531792 C22.3566879,25.9537572 31.0191083,27.9768786 31.0191083,27.9768786" id="XMLID_187_"></path>
                <path d="M17.4522293,45.4913295 C15.0955414,46.0115607 12.611465,46.300578 9.93630573,46.2427746 C10.8280255,47.2254335 11.7834395,48.150289 12.8025478,49.0751445" id="XMLID_186_"></path>
                <path d="M15.2866242,42.1965318 C12.4203822,42.3699422 9.36305732,42.1387283 6.17834395,41.3872832 C6.94267516,42.6011561 7.8343949,43.7572254 8.72611465,44.8554913" id="XMLID_185_"></path>
                <path d="M20.2547771,48.3815029 C18.343949,49.132948 16.3057325,49.7687861 14.0764331,50.1734104 C15.0318471,50.982659 16.0509554,51.734104 17.0700637,52.4855491" id="XMLID_184_"></path>
            </g>
            <g id="XMLID_167_" transform="translate(68.789809, 13.294798)">
                <path d="M18.343949,31.2138728 C22.9299363,29.017341 27.4522293,25.4913295 30.3821656,19.8843931 C30.6369427,21.7919075 30.7006369,23.7572254 30.5095541,25.7803468" id="XMLID_178_"></path>
                <path d="M17.388535,38.6705202 C20.8917197,38.265896 24.5859873,37.3410405 28.1528662,35.433526 C27.5159236,36.8786127 26.8152866,38.3236994 25.9872611,39.7109827" id="XMLID_177_"></path>
                <path d="M18.2165605,34.9710983 C22.3566879,33.8150289 26.5605096,31.734104 30.1910828,28.2080925 C29.8726115,30 29.4904459,31.734104 28.9171975,33.4104046" id="XMLID_176_"></path>
                <path d="M17.7070064,27.4566474 C22.4203822,24.0462428 26.5605096,18.9595376 27.8343949,11.5028902 C28.7261146,13.3526012 29.4267516,15.3179191 29.8726115,17.3410405" id="XMLID_175_"></path>
                <path d="M16.433121,23.8150289 C20.6369427,19.3063584 23.8216561,12.9479769 22.9299363,4.39306358 C24.3312102,5.89595376 25.6050955,7.4566474 26.6878981,9.19075145" id="XMLID_174_"></path>
                <path d="M7.70700637,50.867052 C9.23566879,51.7919075 10.955414,52.6589595 12.866242,53.3526012 C11.8471338,54.0462428 10.8280255,54.6242775 9.74522293,55.2601156" id="XMLID_173_"></path>
                <path d="M4.01273885,52.8901734 C5.2866242,53.9884393 6.75159236,55.0289017 8.34394904,55.9537572 C7.2611465,56.4739884 6.17834395,56.9942197 5.03184713,57.4566474" id="XMLID_172_"></path>
                <path d="M21.0828025,2.71676301 C20,1.79190751 18.8535032,0.867052023 17.5796178,0.0578034682 C19.2993631,8.43930636 17.2611465,14.7976879 13.8216561,19.6531792 C8.85350318,25.9537572 0.191082803,27.9768786 0.191082803,27.9768786" id="XMLID_171_"></path>
                <path d="M13.7579618,45.4913295 C16.1146497,46.0115607 18.5987261,46.300578 21.2738854,46.2427746 C20.3821656,47.2254335 19.4267516,48.150289 18.4076433,49.0751445" id="XMLID_170_"></path>
                <path d="M15.9235669,42.1965318 C18.7898089,42.3699422 21.8471338,42.1387283 25.0318471,41.3872832 C24.2675159,42.6011561 23.3757962,43.7572254 22.4840764,44.8554913" id="XMLID_169_"></path>
                <path d="M10.955414,48.3815029 C12.866242,49.132948 14.9044586,49.7687861 17.133758,50.1734104 C16.1783439,50.982659 15.1592357,51.734104 14.1401274,52.4855491" id="XMLID_168_"></path>
            </g>
            <path d="M43.1210191,19.7687861 L59.6815287,19.7687861" id="XMLID_164_"></path>
            <path d="M41.5923567,65.4913295 L61.7834395,65.4913295" id="XMLID_110_"></path>
            <g id="XMLID_114_" transform="translate(24.840764, 21.387283)">
                <path d="M0.891719745,5.54913295 C2.54241073e-14,5.83815029 -0.382165605,8.38150289 3.69426752,8.20809249 C5.85987261,8.15028902 7.32484076,7.34104046 9.17197452,8.32369942" id="XMLID_196_"></path>
                <g id="XMLID_90_" transform="translate(3.821656, 0.000000)">
                    <path d="M22.0382166,17.5144509 C22.0382166,17.5144509 23.5031847,9.01734104 16.1146497,4.50867052 C16.1146497,4.50867052 17.0063694,3.06358382 16.3694268,0.115606936 C15.477707,1.32947977 13.1847134,2.08092486 9.93630573,1.15606936 C1.52866242,-1.2716763 -0.828025478,1.0982659 1.01910828,5.43352601 C1.01910828,5.43352601 5.2866242,2.60115607 8.02547771,8.03468208 C8.02547771,8.03468208 6.05095541,8.84393064 4.52229299,8.15028902 C4.52229299,8.15028902 3.43949045,10.1156069 8.28025478,10.5202312 C12.2929936,10.867052 15.477707,14.566474 12.6751592,18.7861272" id="XMLID_197_"></path>
                    <path d="M9.8089172,3.69942197 C9.8089172,3.69942197 10.8917197,3.58381503 13.0573248,4.85549133" id="XMLID_111_"></path>
                </g>
                <g id="XMLID_113_" transform="translate(28.662420, 0.000000)">
                    <path d="M0.573248408,17.5144509 C0.573248408,17.5144509 -0.891719745,9.01734104 6.49681529,4.50867052 C6.49681529,4.50867052 5.60509554,3.06358382 6.24203822,0.115606936 C7.13375796,1.32947977 9.42675159,2.08092486 12.6751592,1.15606936 C21.0828025,-1.2716763 23.4394904,1.0982659 21.5923567,5.43352601 C21.5923567,5.43352601 17.3248408,2.60115607 14.5859873,8.03468208 C14.5859873,8.03468208 16.5605096,8.84393064 18.089172,8.15028902 C18.089172,8.15028902 19.1719745,10.1156069 14.3312102,10.5202312 C10.3184713,10.867052 7.13375796,14.566474 9.93630573,18.7861272" id="XMLID_181_"></path>
                    <path d="M25.5414013,5.54913295 C26.433121,5.83815029 26.8152866,8.38150289 22.7388535,8.20809249 C20.5732484,8.15028902 19.1082803,7.34104046 17.2611465,8.32369942" id="XMLID_180_"></path>
                    <path d="M12.7388535,3.69942197 C12.7388535,3.69942197 11.656051,3.58381503 9.49044586,4.85549133" id="XMLID_112_"></path>
                </g>
            </g>
        </g>
    </g>
</svg>