<?xml version="1.0" encoding="UTF-8"?>
<svg width="22px" height="50px" viewBox="0 0 22 50" version="1.1" xmlns="http://www.w3.org/2000/svg" xmlns:xlink="http://www.w3.org/1999/xlink">
    <!-- Generator: Sketch 47.1 (45422) - http://www.bohemiancoding.com/sketch -->
    <title>nba</title>
    <desc>Created with Sketch.</desc>
    <defs></defs>
    <g id="Page-1" stroke="none" stroke-width="1" fill="none" fill-rule="evenodd">
        <g id="nba" fill-rule="nonzero">
            <path d="M4.3957346,0.0533175355 L17.4111374,0.0533175355 C19.8045024,0.0533175355 21.771327,2.02014218 21.771327,4.41350711 L21.771327,45.6338863 C21.771327,48.0272512 19.8045024,49.9940758 17.4111374,49.9940758 L4.3957346,49.9940758 C2.00236967,49.9940758 0.0355450237,48.0272512 0.0355450237,45.6338863 L0.0355450237,4.40758294 C0.0355450237,2.02014218 1.99052133,0.0533175355 4.3957346,0.0533175355 L4.3957346,0.0533175355 Z" id="Shape" fill="#FFFFFF"></path>
            <path d="M18.3116114,49.306872 C18.5781991,48.8092417 19.0402844,47.1919431 18.1635071,45.4917062 C18.4300948,44.5556872 17.7251185,44.3483412 17.4348341,42.2689573 C17.7251185,41.6587678 17.9324645,40.9182464 17.9087678,40.0947867 C17.8495261,39.3661137 17.3163507,39.0106635 17.0319905,38.4537915 C16.5580569,36.5817536 16.3033175,34.5793839 15.5983412,32.8258294 C15.3672986,31.9727488 14.7748815,31.2440758 14.3601896,30.4561611 C13.9454976,28.3412322 13.75,26.0841232 13.0983412,24.0995261 C13.2168246,24.0047393 13.3293839,23.8921801 13.4241706,23.7736967 C12.985782,21.9845972 12.3400474,19.3838863 11.4040284,18.5841232 C11.6350711,17.707346 11.9964455,16.6765403 12.1090047,15.8886256 C12.5236967,15.3317536 12.985782,14.721564 13.8981043,14.306872 C14.3720379,15.6042654 14.5675355,17.2097156 14.8341232,18.5011848 C15.4265403,19.7985782 16.2440758,20.9419431 16.4751185,22.1090047 C14.9822275,22.7014218 13.957346,24.0758294 13.957346,25.6812796 C13.957346,27.7606635 15.6338863,29.4372038 17.6777251,29.4372038 C19.2061611,29.4372038 20.521327,28.4656398 21.1078199,27.1504739 L21.1078199,45.8530806 C21.0959716,47.5236967 19.92891,48.9218009 18.3116114,49.306872 L18.3116114,49.306872 Z" id="Shape" fill="#ED1C24"></path>
            <path d="M16.563981,49.3601896 C15.971564,47.950237 16.3329384,46.7831754 16.4454976,45.1658768 C16.2973934,44.4372038 16.17891,43.6966825 16.0663507,42.9917062 C15.242891,41.7298578 14.9585308,40.5864929 14.7511848,39.235782 C13.2049763,37.8613744 11.3744076,36.6587678 10.1481043,35.1540284 C7.95023697,33.0746445 6.33293839,30.936019 5.22511848,28.5308057 C4.84597156,28.4952607 4.46090047,28.471564 4.05805687,28.471564 C3.35308057,26.563981 1.74763033,24.2535545 1.88388626,22.7488152 C1.94312796,21.4336493 2.35781991,20.2310427 2.85545024,18.8744076 C2.41706161,18.7796209 2.00236967,18.9336493 1.54028436,18.6670616 C0.811611374,18.193128 0.930094787,17.3696682 0.894549763,16.6469194 C1.22037915,15.1777251 2.00236967,13.9514218 2.53554502,12.6362559 C3.06872038,11.492891 3.56635071,10.3495261 4.06398104,9.23578199 C4.76895735,8.4478673 5.20734597,7.88507109 6.08412322,7.5 C6.84834123,7.40521327 7.61255924,7.53554502 8.43009479,7.35189573 C8.77962085,7.23341232 9.21800948,7.14454976 9.36611374,6.91350711 C9.71563981,6.41587678 9.63270142,5.88270142 9.78080569,5.27251185 C9.30687204,5.00592417 9.36611374,3.66706161 9.8992891,3.19312796 C9.8992891,2.257109 10.278436,0.995260664 11.0663507,0.67535545 L4.26540284,0.622037915 C2.2985782,0.622037915 0.716824645,2.20379147 0.716824645,4.17061611 L0.716824645,45.8293839 C0.716824645,47.7962085 2.2985782,49.3779621 4.26540284,49.3779621 L16.563981,49.3601896 L16.563981,49.3601896 Z M2.96208531,40.693128 L4.50829384,40.693128 L5.65165877,44.3542654 L5.65165877,40.693128 L7.06161137,40.693128 L7.06161137,46.8187204 L5.47985782,46.8187204 L4.31279621,43.1575829 L4.31279621,46.8187204 L2.96208531,46.8187204 L2.96208531,40.693128 L2.96208531,40.693128 Z M7.29265403,40.693128 L9.10545024,40.693128 C11.4751185,40.693128 10.8649289,43.5722749 9.98222749,43.6315166 C11.2973934,43.4834123 11.4751185,46.8246445 9.33649289,46.8246445 L7.28080569,46.8246445 L7.28080569,40.693128 L7.29265403,40.693128 Z M8.70260664,41.6883886 L8.70260664,43.0627962 L9.0521327,43.0627962 C9.64454976,43.0627962 9.64454976,41.6883886 9.0521327,41.6883886 L8.70260664,41.6883886 L8.70260664,41.6883886 Z M8.70260664,44.1113744 L8.70260664,45.8116114 L9.0521327,45.8116114 C9.72156398,45.8116114 9.64454976,44.1113744 9.0521327,44.1113744 L8.70260664,44.1113744 L8.70260664,44.1113744 Z M12.0438389,40.693128 L13.9158768,40.693128 L15,46.8187204 L13.5663507,46.8187204 L13.4478673,45.7345972 L12.4526066,45.7345972 L12.2808057,46.8187204 L10.8708531,46.8187204 L12.0438389,40.693128 L12.0438389,40.693128 Z M12.6007109,44.6445498 L13.3293839,44.6445498 L12.950237,41.5936019 L12.6007109,44.6445498 L12.6007109,44.6445498 Z" id="Shape" fill="#2E3192"></path>
            <path d="M13.4656398,0.793838863 C14.4609005,1.72985782 15.07109,3.08056872 14.1350711,4.72156398 C14.7274882,5.1007109 13.6966825,5.77606635 13.4656398,6.30331754 C13.1753555,7.12677725 12.1682464,7.6007109 12.2985782,7.88507109 C13.5959716,8.67298578 14.6090047,9.46682464 15.9063981,10.4976303 C16.5758294,11.3507109 16.8424171,14.7511848 17.221564,17.3281991 C17.778436,18.9336493 18.5722749,20.3199052 18.8625592,22.1386256 C19.8933649,22.5177725 20.6753555,23.3056872 21.0959716,24.2535545 L21.0959716,4.20023697 C21.0959716,2.23341232 19.514218,0.651658768 17.5473934,0.651658768 L13.4656398,0.793838863 L13.4656398,0.793838863 Z" id="Shape" fill="#ED1C24"></path>
        </g>
    </g>
</svg>