<?xml version="1.0" encoding="UTF-8"?>
<svg width="180px" height="30px" viewBox="0 0 185 30" version="1.1" xmlns="http://www.w3.org/2000/svg" xmlns:xlink="http://www.w3.org/1999/xlink">
    <!-- Generator: Sketch 47.1 (45422) - http://www.bohemiancoding.com/sketch -->
    <title>review</title>
    <desc>Created with Sketch.</desc>
    <defs >
        <linearGradient x1="49.9811975%" y1="-0.00674486804%" x2="49.9811975%" y2="99.9419355%" id="linearGradient-1">
            <stop stop-color="#FFFFFF" offset="0%"></stop>
            <stop stop-color="#E2E3E4" offset="100%"></stop>
        </linearGradient>
        <linearGradient x1="49.9423077%" y1="-0.00674486804%" x2="49.9423077%" y2="99.9419355%" id="linearGradient-2">
            <stop stop-color="#FFFFFF" offset="0%"></stop>
            <stop stop-color="#E2E3E4" offset="100%"></stop>
        </linearGradient>
        <linearGradient x1="50.1464986%" y1="-0.00670553936%" x2="50.1464986%" y2="99.7734694%" id="linearGradient-3">
            <stop stop-color="#FFFFFF" offset="0%"></stop>
            <stop stop-color="#E2E3E4" offset="100%"></stop>
        </linearGradient>
        <linearGradient x1="49.8619289%" y1="-0.00674486804%" x2="49.8619289%" y2="99.9419355%" id="linearGradient-4">
            <stop stop-color="#FFFFFF" offset="0%"></stop>
            <stop stop-color="#E2E3E4" offset="100%"></stop>
        </linearGradient>
        <linearGradient x1="50.0082645%" y1="-0.00674486804%" x2="50.0082645%" y2="99.9419355%" id="linearGradient-5">
            <stop stop-color="#FFFFFF" offset="0%"></stop>
            <stop stop-color="#E2E3E4" offset="100%"></stop>
        </linearGradient>
        <linearGradient x1="50.0125%" y1="0.299418605%" x2="50.0125%" y2="100.064826%" id="linearGradient-6">
            <stop stop-color="#FFFFFF" offset="0%"></stop>
            <stop stop-color="#E2E3E4" offset="100%"></stop>
        </linearGradient>
    </defs>
    <g id="Page-1" stroke="none" stroke-width="1" fill="none" fill-rule="evenodd">
        <g id="review" fill-rule="nonzero">
            <g id="XMLID_513_">
                <path d="M17.6102564,29.0833333 L17.6974359,28.6666667 C17.8717949,27.1666667 18.1333333,25.5 18.6564103,23.0833333 C19.1794872,21 18.9179487,20.4166667 18.5692308,20.0833333 C18.3076923,19.8333333 18.0461538,19.6666667 16.1282051,19.6666667 L12.9025641,19.6666667 L10.4615385,29.0833333 L0.61025641,29.0833333 L8.02051282,0.666666667 L25.1948718,0.666666667 C28.5076923,0.666666667 30.5128205,1.25 31.6461538,2.66666667 C32.8666667,4.25 33.0410256,6.5 32.0820513,9.91666667 C30.9487179,14.0833333 29.1179487,15.5833333 26.5025641,16.3333333 C28.5948718,17.25 29.4666667,18.75 28.5948718,22.5 C27.9846154,25.0833333 27.6358974,27.4166667 27.4615385,28.6666667 L27.374359,29 L17.6102564,29 L17.6102564,29.0833333 Z M18.5692308,12.8333333 C20.0512821,12.8333333 20.574359,12.75 20.8358974,12.5 C21.2717949,12.0833333 21.5333333,11.4166667 21.7948718,10.3333333 C22.0564103,9.08333333 22.0564103,8.33333333 21.7948718,8.08333333 C21.6205128,7.91666667 21.1846154,7.83333333 19.5282051,7.83333333 L15.8666667,7.83333333 L14.5589744,12.9166667 L18.5692308,12.9166667 L18.5692308,12.8333333 Z" id="Shape" fill="url(#linearGradient-1)"></path>
                <path d="M25.1948718,1.08333333 C28.2461538,1.08333333 30.2512821,1.58333333 31.2974359,2.91666667 C32.4307692,4.33333333 32.6051282,6.5 31.6461538,9.83333333 C30.425641,14.25 28.4205128,15.6666667 25.1076923,16.25 L25.1076923,16.3333333 C27.9846154,17.1666667 29.1179487,18.3333333 28.1589744,22.5 C27.6358974,24.9166667 27.2,27.25 27.025641,28.75 L17.9589744,28.75 C18.1333333,27.0833333 18.4820513,25.25 18.9179487,23.1666667 C19.4410256,20.9166667 19.1794872,20.25 18.7435897,19.75 C18.3948718,19.4166667 17.8717949,19.25 15.9538462,19.25 L12.3794872,19.25 L9.93846154,28.6666667 L1.22051282,28.6666667 L8.36923077,1.08333333 L25.1948718,1.08333333 L25.1948718,1.08333333 Z M14.0358974,13.25 L18.5692308,13.25 C20.1384615,13.25 20.7487179,13.1666667 21.1846154,12.75 C21.5333333,12.4166667 21.9692308,11.8333333 22.3179487,10.4166667 C22.6666667,8.91666667 22.5794872,8.16666667 22.2307692,7.75 C21.9692308,7.5 21.4461538,7.33333333 19.7025641,7.33333333 L15.6923077,7.33333333 L14.0358974,13.25 L14.0358974,13.25 Z M25.1948718,0.25 L8.36923077,0.25 L7.67179487,0.25 L7.4974359,0.916666667 L0.348717949,28.5 L0.0871794872,29.5 L1.22051282,29.5 L10.1128205,29.5 L10.8102564,29.5 L10.9846154,28.8333333 L13.2512821,20 L16.1282051,20 C17.7846154,20 18.1333333,20.1666667 18.3076923,20.25 C18.3948718,20.3333333 18.7435897,20.6666667 18.2205128,22.8333333 C17.6974359,25.25 17.4358974,26.9166667 17.2615385,28.5 L17.174359,29.4166667 L18.1333333,29.4166667 L27.2,29.4166667 L27.9846154,29.4166667 L28.0717949,28.6666667 C28.2461538,27.3333333 28.6820513,25.0833333 29.2051282,22.5 C29.9025641,19.3333333 29.5538462,17.5 27.7230769,16.3333333 C29.9025641,15.4166667 31.6461538,13.75 32.6051282,9.91666667 C33.5641026,6.41666667 33.3897436,4 32.0820513,2.33333333 C30.774359,0.916666667 28.6820513,0.25 25.1948718,0.25 L25.1948718,0.25 Z M16.2153846,8.16666667 L19.5282051,8.16666667 C21.1846154,8.16666667 21.4461538,8.25 21.4461538,8.33333333 C21.4461538,8.33333333 21.7076923,8.66666667 21.3589744,10.25 C21.0974359,11.25 20.8358974,11.9166667 20.4871795,12.25 C20.3128205,12.4166667 19.7897436,12.5 18.4820513,12.5 L15.0820513,12.5 L16.2153846,8.16666667 L16.2153846,8.16666667 Z" id="Shape" fill="#FFFFFF"></path>
            </g>
            <g id="XMLID_516_" transform="translate(29.000000, 0.000000)">
                <polygon id="Shape" fill="url(#linearGradient-2)" points="0.815789474 29.0833333 2.61052632 21.9166667 16.0710526 21.9166667 17.05 18 7.34210526 18 8.89210526 11.3333333 18.7631579 11.3333333 19.5789474 7.83333333 6.03684211 7.83333333 7.83157895 0.666666667 30.5105263 0.666666667 23.4947368 29.0833333"></polygon>
                <path d="M29.9394737,1.08333333 L23.0868421,28.6666667 L1.30526316,28.6666667 L2.85526316,22.3333333 L16.3973684,22.3333333 L17.5394737,17.5833333 L7.75,17.5833333 L9.13684211,11.75 L18.9263158,11.75 L19.9868421,7.41666667 L6.44473684,7.41666667 L7.99473684,1.08333333 L29.9394737,1.08333333 L29.9394737,1.08333333 Z M31,0.25 L29.9394737,0.25 L8.15789474,0.25 L7.50526316,0.25 L7.34210526,0.916666667 L5.79210526,7.25 L5.54736842,8.25 L6.60789474,8.25 L19.0894737,8.25 L18.4368421,10.9166667 L9.3,10.9166667 L8.64736842,10.9166667 L8.48421053,11.5833333 L7.09736842,17.4166667 L6.85263158,18.4166667 L7.91315789,18.4166667 L16.6421053,18.4166667 L15.9078947,21.5 L3.01842105,21.5 L2.36578947,21.5 L2.20263158,22.1666667 L0.652631579,28.5 L0.407894737,29.5 L1.46842105,29.5 L23.25,29.5 L23.9026316,29.5 L24.0657895,28.8333333 L30.9184211,1.25 L31,0.25 L31,0.25 Z" id="Shape" fill="#FFFFFF"></path>
            </g>
            <g id="XMLID_521_" transform="translate(63.000000, 0.000000)">
                <path d="M6.50273684,29.1666667 C3.91831579,29.1666667 3.00126316,28.25 2.83452632,25.5 L1.16715789,0.666666667 L10.5877895,0.666666667 L11.0046316,20.25 L20.8421053,0.666666667 L30.9296842,0.666666667 L16.5069474,26.4166667 C15.4231579,28.3333333 14.5061053,29.25 12.3385263,29.25 L6.50273684,29.25 L6.50273684,29.1666667 Z" id="Shape" fill="url(#linearGradient-3)"></path>
                <path d="M30.2627368,1.08333333 L16.1734737,26.1666667 C15.0896842,28.0833333 14.256,28.75 12.4218947,28.75 L6.58610526,28.75 C4.16842105,28.75 3.50147368,28 3.33473684,25.5 L1.75073684,1.08333333 L10.3376842,1.08333333 L10.7545263,21.0833333 L11.1713684,21.0833333 L21.2589474,1.08333333 L30.2627368,1.08333333 L30.2627368,1.08333333 Z M31.68,0.25 L30.2627368,0.25 L21.0922105,0.25 L20.592,0.25 L20.3418947,0.666666667 L11.3381053,18.5 L10.9212632,1 L10.9212632,0.166666667 L10.0875789,0.166666667 L1.66736842,0.166666667 L0.750315789,0.166666667 L0.833684211,1.08333333 L2.41768421,25.5 C2.58442105,28.5 3.66821053,29.5833333 6.50273684,29.5833333 L12.3385263,29.5833333 C14.6728421,29.5833333 15.6732632,28.5833333 16.8404211,26.5833333 L30.9296842,1.5 L31.68,0.25 L31.68,0.25 Z" id="Shape" fill="#FFFFFF"></path>
            </g>
            <g id="XMLID_523_" transform="translate(89.000000, 0.000000)">
                <polygon id="Shape" fill="url(#linearGradient-4)" points="0.981818182 29.0833333 7.93636364 0.666666667 17.1 0.666666667 10.1454545 29.0833333"></polygon>
                <path d="M16.5272727,1.08333333 L9.81818182,28.6666667 L1.47272727,28.6666667 L8.18181818,1.08333333 L16.5272727,1.08333333 L16.5272727,1.08333333 Z M17.5909091,0.25 L16.5272727,0.25 L8.18181818,0.25 L7.52727273,0.25 L7.36363636,0.916666667 L0.654545455,28.5 L0.409090909,29.5 L1.47272727,29.5 L9.81818182,29.5 L10.4727273,29.5 L10.6363636,28.8333333 L17.3454545,1.25 L17.5909091,0.25 L17.5909091,0.25 Z" id="Shape" fill="#FFFFFF"></path>
            </g>
            <g id="XMLID_528_" transform="translate(105.000000, 0.000000)">
                <polygon id="Shape" fill="url(#linearGradient-5)" points="0.652631579 29.0833333 7.58684211 0.666666667 30.2657895 0.666666667 28.4710526 7.83333333 15.0105263 7.83333333 14.1131579 11.3333333 23.9026316 11.3333333 22.2710526 18 12.4815789 18 11.5842105 21.9166667 25.0447368 21.9166667 23.3315789 29.0833333"></polygon>
                <path d="M29.6947368,1.08333333 L28.1447368,7.41666667 L14.6842105,7.41666667 L13.6236842,11.75 L23.4131579,11.75 L21.9447368,17.5833333 L12.1552632,17.5833333 L11.0131579,22.3333333 L24.5552632,22.3333333 L23.0052632,28.6666667 L1.22368421,28.6666667 L7.91315789,1.08333333 L29.6947368,1.08333333 L29.6947368,1.08333333 Z M30.7552632,0.25 L29.6947368,0.25 L7.91315789,0.25 L7.26052632,0.25 L7.09736842,0.916666667 L0.407894737,28.5 L0.163157895,29.5 L1.22368421,29.5 L23.0052632,29.5 L23.6578947,29.5 L23.8210526,28.8333333 L25.3710526,22.5 L25.6157895,21.5 L24.5552632,21.5 L12.0736842,21.5 L12.8078947,18.4166667 L21.9447368,18.4166667 L22.5973684,18.4166667 L22.7605263,17.75 L24.2289474,11.9166667 L24.4736842,10.9166667 L23.4131579,10.9166667 L14.6842105,10.9166667 L15.3368421,8.25 L28.2263158,8.25 L28.8789474,8.25 L29.0421053,7.58333333 L30.5921053,1.25 L30.7552632,0.25 L30.7552632,0.25 Z" id="Shape" fill="#FFFFFF"></path>
            </g>
            <g id="XMLID_549_" transform="translate(139.000000, 0.000000)">
                <path d="M21.4124533,29.1666667 C19.9960653,29.1666667 19.079579,28.9166667 18.4963604,28.25 C17.9131418,27.6666667 17.746508,26.8333333 17.8298249,25.5833333 L18.4130435,15.0833333 L13.4973441,26.25 C12.5808578,28.3333333 11.4144206,29.0833333 9.33149715,29.0833333 L4.24916388,29.0833333 C2.91609286,29.0833333 1.99960653,28.8333333 1.41638796,28.25 C0.833169388,27.6666667 0.583218572,26.8333333 0.583218572,25.5 L1.33307102,0.583333333 L10.831202,0.583333333 L9.33149715,18.1666667 L15.8302184,3.33333333 C16.7467047,1.25 17.9131418,0.5 19.9960653,0.5 L23.2454259,0.5 C24.578497,0.5 25.4116663,0.75 25.9948849,1.33333333 C26.5781035,1.91666667 26.7447374,2.75 26.6614204,4.16666667 L25.9948849,18.0833333 L32.8268739,0.666666667 L42.5749557,0.666666667 L30.4939996,26.3333333 C29.5775133,28.4166667 28.3277592,29.1666667 26.2448357,29.1666667 L21.4124533,29.1666667 Z" id="Shape" fill="url(#linearGradient-6)"></path>
                <path d="M23.2454259,1 C25.5783002,1 26.4114696,1.75 26.2448357,4.16666667 L25.4949833,19.5833333 L25.828251,19.5833333 L33.0768247,1.08333333 L41.9084202,1.08333333 L30.1607319,26.1666667 C29.2442455,28.1666667 28.1611253,28.75 26.3281527,28.75 L21.3291363,28.75 C18.9129451,28.75 17.9964588,28 18.0797757,25.6666667 L18.7463112,13.8333333 L18.4130435,13.8333333 L12.9974425,26.1666667 C12.1642731,28.1666667 11.0811529,28.75 9.16486327,28.75 L4.08253,28.75 C1.74965572,28.75 0.833169388,28 0.916486327,25.5833333 L1.66633878,1.08333333 L10.3313004,1.08333333 L8.83159551,19.5833333 L9.24818021,19.5833333 L16.2468031,3.58333333 C17.0799725,1.66666667 18.1630927,1 20.0793823,1 L23.2454259,1 L23.2454259,1 Z M23.2454259,0.166666667 L19.9960653,0.166666667 C17.746508,0.166666667 16.4134369,1.08333333 15.4136337,3.25 L9.91471572,15.75 L11.1644698,1.08333333 L11.2477867,0.166666667 L10.3313004,0.166666667 L1.66633878,0.166666667 L0.833169388,0.166666667 L0.833169388,1 L0.0833169388,25.5 C0.0833169388,26.9166667 0.333267755,27.9166667 0.999803266,28.5833333 C1.66633878,29.25 2.5828251,29.5833333 4.08253,29.5833333 L9.16486327,29.5833333 C11.4144206,29.5833333 12.7474916,28.6666667 13.7472949,26.5 L17.746508,17.4166667 L17.3299233,25.6666667 C17.2466063,27.0833333 17.4965572,28 18.1630927,28.6666667 C18.8296282,29.3333333 19.8294314,29.6666667 21.4124533,29.6666667 L26.4114696,29.6666667 C28.661027,29.6666667 29.994098,28.75 30.9939012,26.5833333 L42.7415896,1.5 L43.3248082,0.333333333 L41.9917372,0.333333333 L33.1601416,0.333333333 L32.5769231,0.333333333 L32.4102892,0.833333333 L26.5781035,15.6666667 L27.0780051,4.25 C27.1613221,3.33333333 27.0780051,2 26.2448357,1.16666667 C25.6616172,0.5 24.7451308,0.166666667 23.2454259,0.166666667 L23.2454259,0.166666667 Z" id="Shape" fill="#FFFFFF"></path>
            </g>
        </g>
    </g>
</svg>