<?xml version="1.0" encoding="UTF-8"?>
<svg width="325px" height="181px" viewBox="0 0 325 181" version="1.1" xmlns="http://www.w3.org/2000/svg" xmlns:xlink="http://www.w3.org/1999/xlink">
    <!-- Generator: Sketch 39.1 (31720) - http://www.bohemiancoding.com/sketch -->
    <title>XMLID_2_</title>
    <desc>Created with Sketch.</desc>
    <defs></defs>
    <g id="Page-1" stroke="none" stroke-width="1" fill="none" fill-rule="evenodd">
        <g id="NM-Potpis_Stroke-sam-stavio-100-posto-5" transform="translate(4.000000, 4.000000)" stroke="#B4862D" stroke-width="9">
            <path d="M90.5,8.4 L97.3,0.9 C98.2,-0.1 99.9,0.7 99.7,2.1 L69.5,172.4 C69.5,172.4 119.5,24.9 131,14.4 C142.1,4.2 102.7,67.1 108.3,141.4 C108.4,143 108.3,147.9 111.1,141.7 C117.3,120.7 136.2,59.2 150.3,29.9 C151,28.4 153.3,29.2 152.9,30.8 C148.7,48.9 140.9,86.3 142.2,108.9 C142.3,110.8 144.9,111.3 145.7,109.5 C154,90.7 179.3,34.3 196.9,3.9 C198.3,1.6 201.8,3.2 200.9,5.7 C188.6,40.6 166.4,117.4 187.6,168.2 C188.6,170.5 186.4,172.9 184,172.1 C154.8,162.3 50.4,127.3 6.9,137.8 C-30.1,146.7 103.7,94.4 314.1,84.6 C315.8,84.5 316.5,86.7 315,87.6 L307.4,92.3" id="XMLID_2_"></path>
        </g>
    </g>
</svg>