<?xml version="1.0" encoding="UTF-8"?>
<svg width="14px" height="14px" viewBox="0 0 14 14" version="1.1" xmlns="http://www.w3.org/2000/svg" xmlns:xlink="http://www.w3.org/1999/xlink">
    <!-- Generator: Sketch 47.1 (45422) - http://www.bohemiancoding.com/sketch -->
    <title>twitter</title>
    <desc>Created with Sketch.</desc>
    <defs></defs>
    <g id="Page-1" stroke="none" stroke-width="1" fill="none" fill-rule="evenodd">
        <g id="twitter" fill-rule="nonzero" fill="#4A4B4C">
            <path d="M7,0.5 C3.3,0.5 0.3,3.5 0.3,7.2 C0.3,10.9 3.3,13.9 7,13.9 C10.7,13.9 13.7,10.9 13.7,7.2 C13.7,3.5 10.7,0.5 7,0.5 Z M10.4,5.9 C10.4,6 10.4,6 10.4,6.1 C10.4,8.3 8.7,10.9 5.6,10.9 C4.6,10.9 3.8,10.6 3,10.1 C3.1,10.1 3.3,10.1 3.4,10.1 C4.2,10.1 4.9,9.8 5.5,9.4 C4.8,9.4 4.1,8.9 3.9,8.2 C4,8.2 4.1,8.2 4.2,8.2 C4.4,8.2 4.5,8.2 4.6,8.1 C3.8,7.9 3.2,7.3 3.2,6.4 C3.2,6.4 3.2,6.4 3.2,6.4 C3.4,6.5 3.7,6.6 4,6.6 C3.5,6.3 3.2,5.8 3.2,5.2 C3.2,4.9 3.3,4.6 3.4,4.4 C4.2,5.4 5.5,6.1 6.9,6.2 C6.9,6.1 6.9,5.9 6.9,5.8 C6.9,4.9 7.7,4.1 8.6,4.1 C9.1,4.1 9.5,4.3 9.8,4.6 C10.2,4.5 10.5,4.4 10.9,4.2 C10.8,4.6 10.5,4.9 10.2,5.1 C10.5,5.1 10.9,5 11.2,4.8 C11,5.3 10.7,5.6 10.4,5.9 Z" id="XMLID_562_"></path>
        </g>
    </g>
</svg>