<?xml version="1.0" encoding="UTF-8"?>
<svg width="28px" height="27px" viewBox="0 0 28 27" version="1.1" xmlns="http://www.w3.org/2000/svg" xmlns:xlink="http://www.w3.org/1999/xlink">
    <!-- Generator: Sketch 47.1 (45422) - http://www.bohemiancoding.com/sketch -->
    <title>up-arrow</title>
    <desc>Created with Sketch.</desc>
    <defs></defs>
    <g id="Page-1" stroke="none" stroke-width="1" fill="none" fill-rule="evenodd">
        <g id="up-arrow" transform="translate(1.000000, 0.000000)" fill-rule="nonzero" stroke="#75787B" fill="#75787B">
            <g id="XMLID_598_">
                <g id="XMLID_35_">
                    <path d="M13,26.2125 C5.99130435,26.2125 0.226086957,20.475 0.226086957,13.5 C0.226086957,6.525 5.99130435,0.7875 13,0.7875 C20.0086957,0.7875 25.773913,6.525 25.773913,13.5 C25.773913,20.475 20.0086957,26.2125 13,26.2125 Z M13,1.4625 C6.33043478,1.4625 0.904347826,6.8625 0.904347826,13.5 C0.904347826,20.1375 6.33043478,25.5375 13,25.5375 C19.6695652,25.5375 25.0956522,20.1375 25.0956522,13.5 C25.0956522,6.8625 19.6695652,1.4625 13,1.4625 Z" id="XMLID_36_"></path>
                </g>
            </g>
            <g id="XMLID_591_" transform="translate(7.000000, 9.000000)">
                <g id="XMLID_18_">
                    <path d="M12.5,7.1 C12.4,7.1 12.4,7.1 12.3,7 L6.4,1.1 L0.6,7 C0.5,7.1 0.3,7.1 0.2,7 C0.1,6.9 0.1,6.7 0.2,6.6 L6.3,0.5 C6.4,0.4 6.6,0.4 6.7,0.5 L12.8,6.6 C12.9,6.7 12.9,6.9 12.8,7 C12.7,7.1 12.6,7.1 12.5,7.1 Z" id="XMLID_19_"></path>
                </g>
            </g>
        </g>
    </g>
</svg>