<?xml version="1.0" encoding="UTF-8"?>
<svg width="101px" height="100px" viewBox="0 0 101 100" version="1.1" xmlns="http://www.w3.org/2000/svg" xmlns:xlink="http://www.w3.org/1999/xlink">
    <!-- Generator: Sketch 48.2 (47327) - http://www.bohemiancoding.com/sketch -->
    <title>Nm Icon_04</title>
    <desc>Created with Sketch.</desc>
    <defs></defs>
    <g id="Page-1" stroke="none" stroke-width="1" fill="none" fill-rule="evenodd" stroke-linecap="round" stroke-linejoin="round">
        <g id="Nm-Icon_04" transform="translate(1.000000, 0.000000)" stroke="#FFFFFF">
            <g id="XMLID_60_">
                <path d="M7.96052632,23.8815789 C16.7105263,9.86842105 32.2368421,0.592105263 49.9342105,0.592105263" id="XMLID_67_"></path>
                <path d="M0.460526316,50 C0.460526316,43.9473684 1.57894737,38.0921053 3.55263158,32.7631579" id="XMLID_66_"></path>
                <path d="M13.6842105,83.6842105 C11.3815789,81.1842105 9.27631579,78.4210526 7.5,75.5263158" id="XMLID_65_"></path>
                <path d="M78.1578947,90.5921053 C70.1315789,96.1842105 60.3947368,99.4736842 49.9342105,99.4736842" id="XMLID_64_"></path>
                <path d="M99.3421053,50 C99.3421053,61.0526316 95.7236842,71.3157895 89.5394737,79.5394737" id="XMLID_63_"></path>
                <path d="M93.75,27.2368421 C95.5263158,30.6578947 96.9078947,34.2763158 97.8289474,38.0921053" id="XMLID_62_"></path>
                <path d="M69.8684211,4.73684211 C71.6447368,5.52631579 73.3552632,6.38157895 74.9342105,7.36842105" id="XMLID_61_"></path>
            </g>
            <g id="XMLID_58_" transform="translate(9.210526, 9.868421)">
                <circle id="XMLID_59_" cx="40.7236842" cy="40.1315789" r="40.1315789"></circle>
            </g>
            <path d="M15.3947368,30.2631579 C15.3947368,30.2631579 15.7894737,33.3552632 19.4078947,31.5131579 C22.0394737,30.1973684 23.4868421,29.3421053 27.3026316,30.8552632 C29.8026316,31.8421053 33.4868421,34.2105263 32.3684211,40.5921053 C31.4473684,45.6578947 37.1052632,47.4342105 39.0789474,50.6578947 C41.0526316,53.9473684 46.5131579,54.2763158 51.9736842,58.4868421 C51.9736842,58.4868421 51.4473684,56.4473684 50.9210526,54.2763158 C50.3947368,52.1052632 50.5263158,48.9473684 46.6447368,51.7105263 C44.8684211,53.0263158 44.1447368,46.9736842 46.5789474,47.6973684 C47.7631579,48.0263158 50.0657895,47.1052632 50.9210526,47.2368421 C51.7763158,47.3684211 52.5,48.2894737 52.8947368,49.1447368 C52.8947368,49.1447368 54.3421053,44.6052632 58.2236842,40.7236842 C59.6052632,39.3421053 60.9868421,38.1578947 62.1710526,37.1052632 C62.6315789,36.7105263 61.7763158,35.3289474 62.2368421,34.9342105 C62.7631579,34.5394737 64.5394737,35.1973684 64.9342105,34.8684211 C65.7236842,34.2763158 66.1842105,33.9473684 66.1842105,33.9473684 C66.1842105,33.9473684 64.3421053,30.9868421 63.5526316,29.0789474 C62.4342105,26.5131579 60.0657895,29.0789474 59.7368421,27.6315789 C59.4078947,26.1842105 63.5526316,24.5394737 63.5526316,24.5394737 C63.5526316,24.5394737 64.2763158,23.4210526 63.0921053,22.6973684 C61.1184211,21.4473684 59.5394737,19.4078947 56.5789474,18.2894737 C53.6842105,17.1710526 54.2105263,15.7236842 56.5789474,15.1973684 C58.4868421,14.8026316 56.7763158,16.9736842 59.2763158,17.8947368 C61.1842105,18.6184211 61.7105263,17.6973684 63.0263158,18.3552632 C64.0789474,18.8815789 64.7368421,20.3289474 66.0526316,21.3157895 C66.7763158,21.8421053 67.3026316,21.5789474 67.5657895,22.9605263 C67.6315789,23.4210526 66.4473684,24.4078947 66.6447368,24.8026316 C68.3552632,28.6842105 70.5263158,30.4605263 74.3421053,28.1578947 C78.2236842,25.8552632 81.0526316,26.0526316 83.2236842,27.5" id="XMLID_57_"></path>
            <path d="M23.1578947,20.5263158 C23.1578947,20.5263158 27.1710526,22.3684211 31.7763158,21.3815789 C33.4210526,21.0526316 36.3815789,19.3421053 36.5131579,16.6447368 C36.7105263,13.8157895 41.9736842,12.1052632 43.3552632,15.5263158 C44.0789474,17.2368421 47.1710526,17.8947368 48.4868421,16.1842105 C48.8157895,15.7236842 46.5131579,14.0131579 46.8421053,13.2894737 C48.6842105,9.40789474 49.2763158,9.93421053 49.2763158,9.93421053" id="XMLID_56_"></path>
            <path d="M56.0526316,89.5394737 C56.1184211,89.4078947 54.6052632,84.7368421 55.1973684,79.8684211 C55.7894737,75 57.3026316,73.0921053 54.0789474,69.8026316 C50.8552632,66.5131579 49.8026316,57.2368421 57.1052632,56.3157895 C64.4078947,55.4605263 66.1842105,59.2105263 69.0131579,61.4473684 C71.8421053,63.6842105 77.6973684,63.6842105 76.7105263,66.6447368 C76.5131579,67.2368421 74.6710526,68.0921053 73.8815789,69.0789474 C73.1578947,70 72.7631579,71.4473684 71.9078947,72.5 C70.8552632,73.8157895 68.75,74.6052632 67.5657895,75.8552632 C66.25,77.3026316 65.1315789,78.2894737 64.2105263,79.6710526 C63.6842105,80.3947368 62.5657895,81.4473684 62.0394737,81.9736842 C60.7894737,83.2236842 60.5921053,84.4736842 59.9342105,85.2631579 C58.4868421,86.9736842 58.1578947,87.8947368 58.0263158,89.1447368" id="XMLID_55_"></path>
            <path d="M54.8684211,21.3157895 C54.8684211,21.3157895 58.2894737,24.0131579 56.7105263,25.1315789 C55.0657895,26.3157895 54.4078947,26.4473684 54.6052632,27.7631579 C54.8026316,29.0789474 55.1973684,30.1973684 55.1973684,30.1973684 L53.9473684,32.3684211 C53.9473684,32.3684211 50.6578947,29.0789474 49.6710526,28.75 C48.6184211,28.3552632 48.4868421,27.1710526 49.6052632,26.3815789 C50.7236842,25.5921053 52.9605263,24.1447368 52.9605263,24.1447368 L54.4736842,23.75 C54.4078947,23.75 55.2631579,22.4342105 54.8684211,21.3157895 Z" id="XMLID_118_"></path>
            <g id="XMLID_115_" transform="translate(11.842105, 50.657895)">
                <path d="M34.0131579,4.86842105 C34.0131579,7.17105263 32.1052632,9.07894737 29.8026316,9.07894737 C27.5,9.07894737 25.5921053,7.17105263 25.5921053,4.86842105" id="XMLID_132_"></path>
                <path d="M25.5921053,4.86842105 C25.5921053,7.17105263 23.6842105,9.07894737 21.3815789,9.07894737 C19.0789474,9.07894737 17.1710526,7.17105263 17.1710526,4.86842105" id="XMLID_126_"></path>
                <path d="M17.1710526,4.86842105 C17.1710526,7.17105263 15.2631579,9.07894737 12.9605263,9.07894737 C10.6578947,9.07894737 8.75,7.17105263 8.75,4.86842105" id="XMLID_124_"></path>
                <path d="M8.75,4.86842105 C8.75,7.17105263 6.84210526,9.07894737 4.53947368,9.07894737 C2.23684211,9.07894737 0.328947368,7.17105263 0.328947368,4.86842105" id="XMLID_119_"></path>
                <path d="M37.5,10.3289474 C37.5,12.6315789 35.5921053,14.5394737 33.2894737,14.5394737 C30.9868421,14.5394737 29.0789474,12.6315789 29.0789474,10.3289474" id="XMLID_123_"></path>
                <path d="M29.0789474,10.3289474 C29.0789474,12.6315789 27.1710526,14.5394737 24.8684211,14.5394737 C22.5657895,14.5394737 20.6578947,12.6315789 20.6578947,10.3289474" id="XMLID_122_"></path>
                <path d="M20.6578947,10.3289474 C20.6578947,12.6315789 18.75,14.5394737 16.4473684,14.5394737 C14.1447368,14.5394737 12.2368421,12.6315789 12.2368421,10.3289474" id="XMLID_121_"></path>
                <path d="M21.3815789,0 C21.3815789,2.30263158 19.4736842,4.21052632 17.1710526,4.21052632 C14.8684211,4.21052632 12.9605263,2.30263158 12.9605263,0" id="XMLID_138_"></path>
                <path d="M12.9605263,0 C12.9605263,2.30263158 11.0526316,4.21052632 8.75,4.21052632 C6.44736842,4.21052632 4.53947368,2.30263158 4.53947368,0" id="XMLID_137_"></path>
                <path d="M12.3026316,10.3289474 C12.3026316,12.6315789 10.3947368,14.5394737 8.09210526,14.5394737 C5.78947368,14.5394737 3.88157895,12.6315789 3.88157895,10.3289474" id="XMLID_120_"></path>
                <path d="M32.6315789,15.8552632 C32.6315789,18.1578947 30.7236842,20.0657895 28.4210526,20.0657895 C26.1184211,20.0657895 24.2105263,18.1578947 24.2105263,15.8552632" id="XMLID_136_"></path>
                <path d="M24.2105263,15.8552632 C24.2105263,18.1578947 22.3026316,20.0657895 20,20.0657895 C17.6973684,20.0657895 15.7894737,18.1578947 15.7894737,15.8552632" id="XMLID_135_"></path>
                <path d="M15.7894737,15.8552632 C15.7894737,18.1578947 13.8815789,20.0657895 11.5789474,20.0657895 C9.27631579,20.0657895 7.36842105,18.1578947 7.36842105,15.8552632" id="XMLID_133_"></path>
            </g>
            <g id="XMLID_140_" transform="translate(61.842105, 36.842105)">
                <path d="M25.4605263,5.06578947 C25.4605263,7.36842105 23.5526316,9.27631579 21.25,9.27631579 C18.9473684,9.27631579 17.0394737,7.36842105 17.0394737,5.06578947" id="XMLID_152_"></path>
                <path d="M17.0394737,5.06578947 C17.0394737,7.36842105 15.1315789,9.27631579 12.8289474,9.27631579 C10.5263158,9.27631579 8.61842105,7.36842105 8.61842105,5.06578947" id="XMLID_151_"></path>
                <path d="M8.61842105,5.06578947 C8.61842105,7.36842105 6.71052632,9.27631579 4.40789474,9.27631579 C2.10526316,9.27631579 0.197368421,7.36842105 0.197368421,5.06578947" id="XMLID_150_"></path>
                <path d="M20.5263158,10.5921053 C20.5263158,12.8947368 18.6184211,14.8026316 16.3157895,14.8026316 C14.0131579,14.8026316 12.1052632,12.8947368 12.1052632,10.5921053" id="XMLID_147_"></path>
                <path d="M21.25,0.263157895 C21.25,2.56578947 19.3421053,4.47368421 17.0394737,4.47368421 C14.7368421,4.47368421 12.8289474,2.56578947 12.8289474,0.263157895" id="XMLID_146_"></path>
                <path d="M12.8289474,0.263157895 C12.8289474,2.56578947 10.9210526,4.47368421 8.61842105,4.47368421 C6.31578947,4.47368421 4.40789474,2.56578947 4.40789474,0.263157895" id="XMLID_145_"></path>
                <path d="M12.1710526,10.5921053 C12.1710526,12.8947368 10.2631579,14.8026316 7.96052632,14.8026316 C5.65789474,14.8026316 3.75,12.8947368 3.75,10.5921053" id="XMLID_144_"></path>
                <path d="M15.6578947,16.0526316 C15.6578947,18.3552632 13.75,20.2631579 11.4473684,20.2631579 C9.14473684,20.2631579 7.23684211,18.3552632 7.23684211,16.0526316" id="XMLID_141_"></path>
            </g>
            <g id="XMLID_53_" transform="translate(4.605263, 4.605263)">
                <path d="M10.7894737,16.5131579 C12.8947368,14.0789474 15.1973684,11.8421053 17.7631579,9.86842105" id="XMLID_149_"></path>
                <path d="M0.263157895,45.4605263 C0.263157895,40.7236842 0.986842105,36.1184211 2.36842105,31.8421053" id="XMLID_155_"></path>
                <path d="M10.1973684,73.6842105 C5.46052632,67.7631579 2.17105263,60.6578947 0.855263158,52.8947368" id="XMLID_153_"></path>
                <path d="M45.2631579,90.4605263 C38.0263158,90.4605263 31.1842105,88.75 25.1315789,85.7236842" id="XMLID_154_"></path>
                <path d="M86.7763158,62.8947368 C85.5263158,65.7894737 84.0131579,68.5526316 82.2368421,71.1184211" id="XMLID_143_"></path>
                <path d="M90,40.4605263 C90.1973684,42.1052632 90.2631579,43.75 90.2631579,45.4605263" id="XMLID_142_"></path>
                <path d="M76.0526316,12.6973684 C80.5263158,16.9078947 84.1447368,22.0394737 86.6447368,27.7631579" id="XMLID_139_"></path>
                <path d="M45.2631579,0.460526316 C52.3026316,0.460526316 58.9473684,2.03947368 64.8684211,4.93421053" id="XMLID_54_"></path>
            </g>
        </g>
    </g>
</svg>